<svg xmlns="http://www.w3.org/2000/svg" viewBox="0 0 1674 473">
  <path d="M369,0H475V356c-.1,39,.19,78-.14,117H390.42c-.4-52.68-.06-105.39-.17-158.08,0-68.73-.07-137.47,0-206.2Q252.69,285.27,114.73,461.55c-3.11,3.79-5.84,7.92-9.27,11.45H.76C5.42,466,11,459.72,16,453Q193,226.52,370,0Z"/>
  <path d="M941.63,0h105.22c-.23,127.32,0,254.65-.1,382-.07,30.34.16,60.68-.11,91H961.79q-.12-182,0-364.06Q821.24,289.28,680.32,469.34q-1.47,1.88-3,3.66H572.9c1.4-3.9,4.68-6.67,7-10Q760.76,231.5,941.63,0Z"/>
  <path d="M1198.86,0h105.32q66.13,84.45,132.1,169l-52.69,67.46Q1291.27,118.2,1198.86,0Z"/>
  <path d="M1436.32,303.88q26.3-33.72,52.65-67.4,85.66,109.59,171.29,219.23c4.26,5.81,9.29,11.09,13,17.29H1568.65c-11-13.26-21.24-27.1-32-40.57Q1486.53,368.14,1436.32,303.88Z" />
  <path d="M1568.38,0h105.37Q1581.3,118.2,1489,236.48q-26.31,33.72-52.65,67.4c-44.13,56.34-88,112.87-132.26,169.12H1199c11.78-15.78,24.19-31.09,36.23-46.67q74.14-94.93,148.32-189.84L1436.28,169Q1502.34,84.52,1568.38,0Z" fill="#007dff"/>
</svg>