<?xml version="1.0" encoding="utf-8"?>
<!-- Generator: Adobe Illustrator 20.1.0, SVG Export Plug-In . SVG Version: 6.00 Build 0)  -->
<svg version="1.1" id="Слой_1" xmlns="http://www.w3.org/2000/svg" xmlns:xlink="http://www.w3.org/1999/xlink" x="0px" y="0px"
	 viewBox="0 0 31 27" style="enable-background:new 0 0 31 27;" xml:space="preserve">
<path d="M20,9.9l6.1,3.8l4.4-6.2l-1.2-0.9l-2.7,3.8c-1.5-5.8-6.8-10.1-13-10.1C6.3,0.3,0.4,6.2,0.4,13.5s5.9,13.3,13.3,13.3
	c3.2,0,6.4-1.2,8.8-3.3l-1-1.1c-2.1,1.9-4.9,3-7.8,3C7.1,25.3,1.9,20,1.9,13.5S7.1,1.8,13.6,1.8c5.7,0,10.6,4.1,11.6,9.7l-4.4-2.8
	L20,9.9z M25.8,11.6L25.8,11.6h-0.1H25.8z"/>
</svg>
