<?xml version="1.0" encoding="utf-8"?>
<!-- Generator: Adobe Illustrator 20.1.0, SVG Export Plug-In . SVG Version: 6.00 Build 0)  -->
<svg version="1.1" xmlns="http://www.w3.org/2000/svg" xmlns:xlink="http://www.w3.org/1999/xlink" x="0px" y="0px"
	 viewBox="0 0 20 12" style="enable-background:new 0 0 20 12;" xml:space="preserve">
<rect x="12.4" y="0.1" width="5.8" height="1.6"/>
<path d="M17,9l-0.1,0.3c-0.1,0.1-0.2,0.3-0.2,0.3c-0.3,0.3-0.7,0.4-1.2,0.4c-0.1,0-0.3,0-0.4,0c-0.1,0-0.1,0-0.2,0
	c-0.2-0.1-0.4-0.1-0.6-0.2c-0.6-0.3-0.7-0.6-0.8-1.4h6.1c0-0.3,0-0.7,0-1c0-0.4,0-0.8-0.1-1c-0.1-0.7-0.3-1.2-0.7-1.7
	c-0.2-0.4-0.5-0.6-0.9-0.9c-0.2-0.1-0.4-0.3-0.6-0.4c-0.3-0.1-0.7-0.2-1.1-0.3c-0.3,0-0.6-0.1-0.9-0.1c-1.2,0-2.3,0.4-3,1.1
	C11.4,4.8,11,5.9,11,7.4c0,1.5,0.4,2.7,1.3,3.3c0.9,0.7,1.9,1.1,3,1.1c0.8,0,1.5-0.1,2.1-0.4c0.4-0.2,0.8-0.5,1.1-0.8
	c0.5-0.5,0.8-1.2,0.8-1.7h-2.3L17,9z M13.9,5.2c0.2-0.2,0.5-0.4,0.8-0.5c0.2,0,0.3-0.1,0.5-0.1c0.3,0,0.5,0,0.7,0.1
	c0.2,0.1,0.4,0.2,0.6,0.4c0.4,0.3,0.5,0.9,0.5,1.4h-3.7C13.5,6.1,13.6,5.5,13.9,5.2z"/>
<path d="M9.4,7C9.1,6.5,8.6,6.2,8,6c0.2-0.1,0.4-0.2,0.5-0.3c0.1-0.1,0.3-0.2,0.4-0.3c0.2-0.3,0.4-0.5,0.4-0.9
	c0.1-0.2,0.1-0.5,0.1-0.8c0-0.1,0-0.3,0-0.4c0-0.2,0-0.3-0.1-0.5L9.3,2.6L9.2,2.4C9.1,2.2,9,2.1,8.9,1.9C8.7,1.7,8.5,1.4,8.1,1.3
	C8,1.2,7.8,1.1,7.6,1c-0.5-0.2-1-0.2-1.6-0.2H0.5v11l5.1,0c0.4,0,0.8,0,1.1,0c0.2,0,0.4,0,0.6-0.1c0.4-0.1,0.8-0.2,1.1-0.4l0.2-0.1
	C8.8,11.1,8.9,11,9,10.9c0.2-0.2,0.3-0.3,0.4-0.5c0.1-0.1,0.2-0.3,0.2-0.5c0-0.1,0.1-0.2,0.1-0.3l0.1-0.2l0-0.2
	c0-0.2,0.1-0.4,0.1-0.6c0-0.3-0.1-0.7-0.2-1C9.6,7.4,9.5,7.2,9.4,7z M6.4,9.6C6,9.8,5.5,9.9,5.3,9.9H2.9V6.9h2.4
	c0.5,0,1.3,0.1,1.6,0.8C6.9,8,7,8.2,7,8.6C7,9.1,6.7,9.4,6.4,9.6z M6.9,4.4C6.9,4.7,6.7,4.9,6.4,5.1l-0.1,0C6.2,5.2,6.2,5.3,6.1,5.3
	c-0.1,0-0.2,0-0.4,0H2.9V2.4h2.4c0.2,0,0.4,0,0.6,0c0.2,0,0.4,0.1,0.6,0.2C7,2.9,7,3.4,7,3.9C7,4.1,7,4.3,6.9,4.4z"/>
</svg>
