<?xml version="1.0" encoding="utf-8"?>
<!-- Generator: Adobe Illustrator 20.1.0, SVG Export Plug-In . SVG Version: 6.00 Build 0)  -->
<svg version="1.1" id="Слой_1" xmlns="http://www.w3.org/2000/svg" xmlns:xlink="http://www.w3.org/1999/xlink" x="0px" y="0px"
	 viewBox="0 0 21 20" style="enable-background:new 0 0 21 20;" xml:space="preserve">
<path d="M20,15.1h-2.2V7.9c-0.1-4.3-3.4-7.7-7.6-7.7S2.7,3.6,2.6,7.8c0,0,0,0,0,7.4H0.8c-0.4,0-0.8,0.3-0.8,0.7
	c0,0.4,0.3,0.7,0.8,0.7h5.9c0.2,1.8,1.7,3.2,3.6,3.2s3.4-1.5,3.6-3.2h6.1c0.4,0,0.8-0.3,0.8-0.7C20.8,15.6,20.5,15.1,20,15.1z
	 M4.3,7.9c0-3.4,2.7-6.1,6-6.1s5.9,2.8,6,6.1v7.3H4.3C4.3,14.6,4.3,8,4.3,7.9z M10.3,18.4c-1,0-1.9-0.7-2-1.7h4.1
	C12.2,17.6,11.3,18.4,10.3,18.4z"/>
</svg>
