<?xml version="1.0" encoding="utf-8"?>
<!-- Generator: Adobe Illustrator 20.1.0, SVG Export Plug-In . SVG Version: 6.00 Build 0)  -->
<svg version="1.1" id="Слой_1" xmlns="http://www.w3.org/2000/svg" xmlns:xlink="http://www.w3.org/1999/xlink" x="0px" y="0px"
	 viewBox="0 0 13 13" style="enable-background:new 0 0 13 13;" xml:space="preserve">
<path id="bold" d="M1,0v0.6h1.2c0.4,0,0.6,0.2,0.6,0.6v10.6c0,0.4-0.2,0.6-0.6,0.6H1.2V13h7.1c2,0,3.7-1.7,3.7-3.7
	c0-1.5-0.9-2.8-2.2-3.4c0.8-0.6,1.4-1.5,1.4-2.7C11.2,1.4,9.8,0,7.9,0H1L1,0z M5,0.6h1.1c1.4,0,2.5,1.2,2.5,2.5S7.4,5.6,6.1,5.6H5
	V0.6z M5,6.3h1.7c1.7,0,3.1,1.4,3.1,3.1s-1.4,3.1-3.1,3.1H5V6.3z"/>
</svg>
