<?xml version="1.0" encoding="utf-8"?>
<!-- Generator: Adobe Illustrator 20.1.0, SVG Export Plug-In . SVG Version: 6.00 Build 0)  -->
<svg version="1.1" id="Слой_1" xmlns="http://www.w3.org/2000/svg" xmlns:xlink="http://www.w3.org/1999/xlink" x="0px" y="0px"
	 viewBox="0 0 18 18" style="enable-background:new 0 0 18 18;" xml:space="preserve">
<path d="M17.5,2H15V0.5C15,0.2,14.8,0,14.5,0h-3C11.2,0,11,0.2,11,0.5V2H7V0.5C7,0.2,6.8,0,6.5,0h-3C3.2,0,3,0.2,3,0.5
	V2H0.5C0.2,2,0,2.2,0,2.5v15C0,17.8,0.2,18,0.5,18h17c0.3,0,0.5-0.2,0.5-0.5v-15C18,2.2,17.8,2,17.5,2z M12,1h2v3h-2V1z M4,1h2v3H4
	V1z M3,3v1.5C3,4.8,3.2,5,3.5,5h3C6.8,5,7,4.8,7,4.5V3h4v1.5C11,4.8,11.2,5,11.5,5h3C14.8,5,15,4.8,15,4.5V3h2v3H1V3H3z M1,17V7h16
	v10H1z"/>
</svg>
