<?xml version="1.0" encoding="utf-8"?>
<!-- Generator: Adobe Illustrator 20.1.0, SVG Export Plug-In . SVG Version: 6.00 Build 0)  -->
<svg version="1.1" id="Слой_1" xmlns="http://www.w3.org/2000/svg" xmlns:xlink="http://www.w3.org/1999/xlink" x="0px" y="0px"
	 viewBox="0 0 35 32" style="enable-background:new 0 0 35 32;" xml:space="preserve">
<path d="M34.9,16c0-0.8-0.4-1.4-1.1-1.8l-2.6-1.3l2.6-1.3l0,0c0.7-0.3,1.1-1,1.1-1.8S34.5,8.4,33.8,8L19.1,0.5C18,0,16.8,0,15.7,0.5
	L1.1,8C0.4,8.4,0,9,0,9.8s0.4,1.4,1.1,1.8l2.6,1.3l-2.6,1.3C0.4,14.5,0,15.2,0,16s0.4,1.4,1.1,1.8l2.6,1.3l-2.6,1.3
	c-0.7,0.3-1.1,1-1.1,1.8s0.4,1.4,1.1,1.8l14.7,7.5c0.5,0.3,1.1,0.4,1.7,0.4s1.2-0.1,1.7-0.4L33.9,24c0.7-0.3,1.1-1,1.1-1.8
	s-0.4-1.4-1.1-1.8l-2.7-1.3l2.6-1.3C34.5,17.4,34.9,16.7,34.9,16z M1.8,10.1C1.6,10,1.6,9.9,1.6,9.8s0-0.2,0.2-0.3L16.5,2
	c0.3-0.2,0.7-0.2,1-0.2s0.7,0.1,1,0.2l14.7,7.5c0.2,0.1,0.2,0.2,0.2,0.3s0,0.2-0.2,0.3l-14.7,7.5c-0.6,0.3-1.4,0.3-2,0L1.8,10.1z
	 M33.1,21.9c0.2,0.1,0.2,0.2,0.2,0.3c0,0.1,0,0.2-0.2,0.3L18.4,30c-0.6,0.3-1.4,0.3-2,0L1.8,22.5c-0.2-0.1-0.2-0.2-0.2-0.3
	c0-0.1,0-0.2,0.2-0.3L5.5,20l10.3,5.3c0.5,0.3,1.1,0.4,1.7,0.4s1.2-0.1,1.7-0.4L29.5,20L33.1,21.9z M33.1,16.3l-14.7,7.5
	c-0.6,0.3-1.4,0.3-2,0L1.8,16.3c-0.2-0.1-0.2-0.2-0.2-0.3c0-0.1,0-0.2,0.2-0.3l3.7-1.9l10.2,5.3c0.5,0.3,1.1,0.4,1.7,0.4
	s1.2-0.1,1.7-0.4l10.3-5.3l3.7,1.9c0.2,0.1,0.2,0.2,0.2,0.3C33.3,16.1,33.2,16.2,33.1,16.3z"/>
</svg>
