<?xml version="1.0" encoding="utf-8"?>
<!-- Generator: Adobe Illustrator 20.1.0, SVG Export Plug-In . SVG Version: 6.00 Build 0)  -->
<svg version="1.1" id="Слой_1" xmlns="http://www.w3.org/2000/svg" xmlns:xlink="http://www.w3.org/1999/xlink" x="0px" y="0px"
	 viewBox="0 0 13 17" style="enable-background:new 0 0 13 17;" xml:space="preserve">
<path d="M9.5,2.8H5.1l1.4-1.2c0.3-0.3,0.4-0.7,0.1-1.1C6.3,0.2,5.8,0.2,5.5,0.4L1.8,3.5l3.7,3.1C5.7,6.7,5.8,6.8,6,6.8
	s0.4-0.1,0.6-0.3c0.3-0.3,0.2-0.8-0.1-1.1L5.1,4.3h4.4c0.7,0,1.3,0.5,1.3,1.3v2c0,0.4,0.3,0.8,0.8,0.8s0.8-0.3,0.8-0.8v-2
	C12.3,4,11,2.8,9.5,2.8z"/>
<path d="M6.4,10.5c-0.3,0.3-0.2,0.8,0.1,1.1l1.4,1.2H3.5c-0.7,0-1.2-0.6-1.2-1.3v-2c0-0.4-0.3-0.8-0.8-0.8
	S0.8,9.1,0.8,9.5v2c0,1.5,1.2,2.8,2.7,2.8h4.4l-1.4,1.2c-0.3,0.3-0.4,0.7-0.1,1.1c0.1,0.2,0.4,0.3,0.6,0.3s0.3-0.1,0.5-0.2l3.7-3.1
	l-3.7-3.1C7.2,10.2,6.7,10.2,6.4,10.5z"/>
</svg>
