<?xml version="1.0" encoding="utf-8"?>
<!-- Generator: Adobe Illustrator 20.1.0, SVG Export Plug-In . SVG Version: 6.00 Build 0)  -->
<svg version="1.1" id="Слой_1" xmlns="http://www.w3.org/2000/svg" xmlns:xlink="http://www.w3.org/1999/xlink" x="0px" y="0px"
	 viewBox="0 0 40 35" style="enable-background:new 0 0 40 35;" xml:space="preserve">
<path d="M37.5,16.5c-1.3,0-2.4,1.1-2.4,2.4c0,1,0.6,1.9,1.5,2.3v4.2c0,0.1-0.1,0.3-0.3,0.3H12.8l-4,4v-4H2.3c-0.1,0-0.3-0.1-0.3-0.3
	V2.8c0-0.1,0.1-0.3,0.3-0.3h34c0.1,0,0.3,0.1,0.3,0.3v5.8h1h1V2.8c0-1.2-1-2.3-2.3-2.3h-34c-1.2,0-2.3,1-2.3,2.3v22.7
	c0,1.2,1,2.3,2.3,2.3h4.5v4v2.8l2-2v0l4.8-4.8h22.7c1.2,0,2.3-1,2.3-2.3v-4.3c0.8-0.4,1.3-1.2,1.3-2.2
	C39.9,17.6,38.8,16.5,37.5,16.5z"/>
</svg>
