<?xml version="1.0" encoding="utf-8"?>
<!-- Generator: Adobe Illustrator 20.1.0, SVG Export Plug-In . SVG Version: 6.00 Build 0)  -->
<svg version="1.1" id="Слой_1" xmlns="http://www.w3.org/2000/svg" xmlns:xlink="http://www.w3.org/1999/xlink" x="0px" y="0px"
	 viewBox="0 0 34 34" style="enable-background:new 0 0 34 34;" xml:space="preserve">
<path d="M17,34c-5.3,0-10.3-2.4-13.5-6.7l1.6-1.2C7.9,29.8,12.3,32,17,32c0.7,0,1.4-0.1,2.1-0.2l0.3,2C18.6,33.9,17.8,34,17,34z
	 M26.3,31.2l-1.1-1.7C29.5,26.8,32,22.1,32,17c0-0.4,0-0.7,0-1.1l2-0.1c0,0.4,0,0.8,0,1.2C34,22.7,31.1,28.1,26.3,31.2z M0.4,20.6
	C0.1,19.4,0,18.2,0,17c0-4.9,2.1-9.5,5.8-12.7l1.3,1.5C3.9,8.6,2,12.7,2,17c0,1.1,0.1,2.1,0.3,3.2L0.4,20.6z M30.1,9.7
	C27.5,4.9,22.4,2,17,2c0,0,0,0,0,0c-1.4,0-2.9,0.2-4.2,0.6l-0.6-1.9C13.8,0.2,15.4,0,17,0c0,0,0,0,0,0c6.2,0,11.8,3.3,14.8,8.7
	L30.1,9.7z"/>
</svg>
