<?xml version="1.0" encoding="utf-8"?>
<!-- Generator: Adobe Illustrator 20.1.0, SVG Export Plug-In . SVG Version: 6.00 Build 0)  -->
<svg version="1.1" id="Слой_1" xmlns="http://www.w3.org/2000/svg" xmlns:xlink="http://www.w3.org/1999/xlink" x="0px" y="0px"
	 viewBox="0 0 22 15" style="enable-background:new 0 0 22 15;" xml:space="preserve">
<path d="M11.8,13.5h6.6h0.1c1,0,1.9-0.8,1.9-1.8c0-0.7-0.4-1.3-1-1.6l-0.9-0.5l0.1-1c0-0.2,0-0.4,0-0.6c0-3.6-2.8-6.4-6.3-6.4
	c-3.1,0-5.7,2.3-6.2,5.4L5.9,8.3L4.5,8.2c-0.1,0-0.1,0-0.2,0c-1.5,0-2.7,1.2-2.7,2.7c0,1.5,1.2,2.7,2.7,2.7c0,0,0.1,0,0.2,0l1.5,0
	H11.8z M18.4,15H6l-1.5,0c-0.1,0-0.1,0-0.2,0c-2.3,0-4.2-1.9-4.2-4.2c0-2.3,1.9-4.2,4.2-4.2c0.1,0,0.2,0,0.3,0C5.2,2.9,8.4,0,12.3,0
	c4.3,0,7.8,3.6,7.8,7.9c0,0.3,0,0.5,0,0.8c1.1,0.6,1.8,1.7,1.8,2.9c0,1.8-1.5,3.3-3.3,3.3C18.5,15,18.4,15,18.4,15L18.4,15z"/>
</svg>
