<?xml version="1.0" encoding="utf-8"?>
<!-- Generator: Adobe Illustrator 20.1.0, SVG Export Plug-In . SVG Version: 6.00 Build 0)  -->
<svg version="1.1" id="Слой_1" xmlns="http://www.w3.org/2000/svg" xmlns:xlink="http://www.w3.org/1999/xlink" x="0px" y="0px"
	 viewBox="0 0 24 19" style="enable-background:new 0 0 24 19;" xml:space="preserve">
<path d="M15.2,17.1h5.7H21c0.8,0,1.4-0.6,1.4-1.4c0-0.5-0.3-1-0.7-1.2L20.8,14l0.1-1c0-0.2,0-0.3,0-0.5c0-3-2.4-5.4-5.3-5.4
	c-2.6,0-4.8,1.9-5.2,4.5L10.3,13l-1.4-0.1c0,0-0.1,0-0.1,0c-1.2,0-2.1,0.9-2.1,2.1c0,1.2,0.9,2.1,2.1,2.1c0,0,0.1,0,0.1,0l1.3,0
	H15.2z M5.4,13.6c-0.8-1-1.3-2.2-1.3-3.5c0-3,2.5-5.5,5.5-5.5c1.4,0,2.7,0.5,3.7,1.4c0.7-0.3,1.5-0.4,2.3-0.4c3.7,0,6.8,3.1,6.8,6.9
	c0,0.2,0,0.5,0,0.7c0.9,0.5,1.5,1.4,1.5,2.6c0,1.6-1.3,2.9-2.9,2.9c0,0-0.1,0-0.1,0H10.2l-1.3,0c0,0-0.1,0-0.1,0
	c-2,0-3.6-1.6-3.6-3.6C5.2,14.5,5.3,14.1,5.4,13.6L5.4,13.6z M6.3,12.3c0.6-0.6,1.5-0.9,2.4-0.9c0.1,0,0.2,0,0.2,0
	c0.3-1.9,1.4-3.6,2.9-4.6c-0.7-0.4-1.4-0.7-2.2-0.7c-2.2,0-4,1.8-4,4C5.7,10.9,5.9,11.7,6.3,12.3L6.3,12.3z M8.9,1.1
	c0-0.4,0.3-0.8,0.8-0.8c0.4,0,0.8,0.3,0.8,0.8v1.4c0,0.4-0.3,0.8-0.8,0.8c-0.4,0-0.8-0.3-0.8-0.8V1.1z M2.2,15.3
	c-0.4,0.2-0.8,0.1-1-0.3s-0.1-0.8,0.3-1l1.2-0.7c0.4-0.2,0.8-0.1,1,0.3s0.1,0.8-0.3,1L2.2,15.3z M0.7,9.3C0.3,9.2,0,8.8,0.1,8.4
	C0.1,8,0.5,7.8,0.9,7.8l1.3,0.2C2.7,8.1,3,8.5,2.9,8.9C2.8,9.3,2.4,9.6,2,9.5L0.7,9.3z M3.3,3.7C3,3.4,3.1,2.9,3.4,2.7
	c0.3-0.3,0.8-0.2,1.1,0.1l0.9,1c0.3,0.3,0.2,0.8-0.1,1.1C4.9,5.1,4.5,5.1,4.2,4.8L3.3,3.7z"/>
</svg>
