<?xml version="1.0" encoding="utf-8"?>
<!-- Generator: Adobe Illustrator 20.1.0, SVG Export Plug-In . SVG Version: 6.00 Build 0)  -->
<svg version="1.1" id="Слой_1" xmlns="http://www.w3.org/2000/svg" xmlns:xlink="http://www.w3.org/1999/xlink" x="0px" y="0px"
	 viewBox="0 0 19 14" style="enable-background:new 0 0 19 14;" xml:space="preserve">
<path d="M2.4,11.2c-1.3-0.6-2.1-1.9-2.1-3.4c0-1.4,0.8-2.7,2.1-3.4c0.4-2.5,2.6-4.4,5.2-4.4c1.6,0,3.1,0.8,4.1,2
	c3.3,0.1,5.9,2.9,5.9,6.2c0,0,0,0.1,0,0.1c0.7,0.6,1.2,1.5,1.2,2.4c0,1.7-1.4,3.1-3.1,3.1c-0.1,0-0.1,0-0.1,0H11H7l-1,0
	c-0.1,0-0.1,0-0.1,0C4.2,13.9,2.7,12.8,2.4,11.2L2.4,11.2z M2.4,9.4C2.8,7.9,4,6.9,5.5,6.7C6,4.6,7.7,2.9,9.7,2.3
	C9.1,1.8,8.3,1.6,7.5,1.6c-2,0-3.6,1.5-3.7,3.5l0,0.5L3.3,5.7C2.4,6,1.8,6.8,1.8,7.8C1.8,8.4,2,9,2.4,9.4L2.4,9.4z M11,12.4h4.6
	c0,0,0,0,0.1,0c0.9,0,1.6-0.7,1.6-1.6c0-0.6-0.3-1.1-0.8-1.4L16,9.3L16,8.8c0-0.2,0-0.3,0-0.5c0-2.6-2.1-4.7-4.6-4.7
	c-2.3,0-4.2,1.7-4.6,4L6.7,8.2L6,8.2c0,0-0.1,0-0.1,0c-1.2,0-2.1,1-2.1,2.1s1,2.1,2.1,2.1c0,0,0,0,0.1,0l1,0H11z"/>
</svg>
