<?xml version="1.0" encoding="utf-8"?>
<!-- Generator: Adobe Illustrator 20.1.0, SVG Export Plug-In . SVG Version: 6.00 Build 0)  -->
<svg version="1.1" id="Слой_1" xmlns="http://www.w3.org/2000/svg" xmlns:xlink="http://www.w3.org/1999/xlink" x="0px" y="0px"
	 viewBox="0 0 13 16" style="enable-background:new 0 0 13 16;" xml:space="preserve">
<path id="Restaurants" d="M5.3,1.4l0,0.7c0,2.1,0,3.4-0.6,4C4.5,6.3,4.2,6.4,3.9,6.4H3.3V15c0,0.2-0.2,0.4-0.4,0.4
	c-0.2,0-0.4-0.2-0.4-0.4V6.4H1.9c-0.3,0-0.6-0.1-0.8-0.3c-0.6-0.6-0.6-2-0.6-4l0-0.7C0.5,1.2,0.7,1,0.9,1c0.2,0,0.4,0.2,0.4,0.4
	l0,0.7c0,1.7,0,3.1,0.4,3.5c0,0,0.1,0.1,0.2,0.1h0.6V1.4C2.5,1.2,2.7,1,2.9,1c0.2,0,0.4,0.2,0.4,0.4v4.2h0.6c0.1,0,0.2,0,0.2-0.1
	c0.4-0.4,0.4-1.8,0.4-3.5l0-0.7C4.5,1.2,4.7,1,4.9,1C5.1,1,5.3,1.2,5.3,1.4z M12.8,4c0,1.7-1.1,3.1-2.5,3.4V15
	c0,0.2-0.2,0.4-0.4,0.4c-0.2,0-0.4-0.2-0.4-0.4V7.4C8.1,7.1,7,5.7,7,4c0-1.9,1.3-3.4,2.9-3.4C11.5,0.6,12.8,2.1,12.8,4z M9.9,6.6
	C11.1,6.6,12,5.4,12,4c0-1.4-0.9-2.6-2.1-2.6C8.7,1.4,7.8,2.6,7.8,4C7.8,5.4,8.7,6.6,9.9,6.6C9.9,6.6,9.9,6.6,9.9,6.6
	C9.9,6.6,9.9,6.6,9.9,6.6z"/>
</svg>
