<?xml version="1.0" encoding="utf-8"?>
<!-- Generator: Adobe Illustrator 21.0.2, SVG Export Plug-In . SVG Version: 6.00 Build 0)  -->
<svg version="1.1" xmlns="http://www.w3.org/2000/svg" xmlns:xlink="http://www.w3.org/1999/xlink" x="0px" y="0px"
	 viewBox="0 0 16 2" style="enable-background:new 0 0 16 2;" xml:space="preserve">
<g transform="translate(1379.000000, 2471.000000)">
	<path d="M-1378-2471L-1378-2471c0.6,0,1,0.4,1,1l0,0c0,0.6-0.4,1-1,1l0,0c-0.6,0-1-0.4-1-1l0,0
		C-1379-2470.6-1378.6-2471-1378-2471z"/>
	<path d="M-1371-2471L-1371-2471c0.6,0,1,0.4,1,1l0,0c0,0.6-0.4,1-1,1l0,0c-0.6,0-1-0.4-1-1l0,0
		C-1372-2470.6-1371.6-2471-1371-2471z"/>
	<path d="M-1364-2471L-1364-2471c0.6,0,1,0.4,1,1l0,0c0,0.6-0.4,1-1,1l0,0c-0.6,0-1-0.4-1-1
		l0,0C-1365-2470.6-1364.6-2471-1364-2471z"/>
</g>
</svg>
