<?xml version="1.0" encoding="utf-8"?>
<!-- Generator: Adobe Illustrator 20.1.0, SVG Export Plug-In . SVG Version: 6.00 Build 0)  -->
<svg version="1.1" id="Слой_1" xmlns="http://www.w3.org/2000/svg" xmlns:xlink="http://www.w3.org/1999/xlink" x="0px" y="0px"
	 viewBox="0 0 18 17" style="enable-background:new 0 0 18 17;" xml:space="preserve">
<path d="M14.3,4.1c-0.1,0.2-1.3,1.7-3.8,2.7c0.2,0.3,0.3,0.7,0.5,1C10.9,8,11,8.1,11,8.2c2.3-0.3,4.6,0.2,4.8,0.2
	C15.8,6.8,15.2,5.3,14.3,4.1L14.3,4.1z M7.3,1.7c0.2,0.3,1.4,2,2.6,4.1c2.4-0.9,3.5-2.3,3.6-2.5C12.3,2.2,10.7,1.6,9,1.6
	C8.4,1.6,7.9,1.6,7.3,1.7L7.3,1.7z M2.2,7.1c0.3,0,3.1,0,6.4-0.8c-1.1-2-2.4-3.8-2.6-4C4.1,3.1,2.7,4.9,2.2,7.1L2.2,7.1z M3.8,13.2
	c0.2-0.3,2-3.4,5.6-4.6c0.1,0,0.2-0.1,0.3-0.1C9.5,8.1,9.3,7.7,9.1,7.3c-3.4,1-6.8,1-7.1,1c0,0.1,0,0.1,0,0.2
	C2.1,10.3,2.7,11.9,3.8,13.2L3.8,13.2z M11.6,14.9c-0.1-0.6-0.5-2.7-1.5-5.3c0,0,0,0,0,0C6.2,11,4.9,13.7,4.7,14
	c1.2,0.9,2.6,1.5,4.2,1.5C9.9,15.5,10.8,15.3,11.6,14.9L11.6,14.9z M15.7,9.6c-0.2-0.1-2.1-0.6-4.3-0.3c0.9,2.5,1.3,4.5,1.3,5
	C14.3,13.2,15.4,11.6,15.7,9.6L15.7,9.6z M9,17c-4.6,0-8.4-3.8-8.4-8.5C0.6,3.8,4.4,0,9,0c4.6,0,8.4,3.8,8.4,8.5
	C17.4,13.2,13.6,17,9,17L9,17z"/>
</svg>