<?xml version="1.0" encoding="utf-8"?>
<!-- Generator: Adobe Illustrator 20.1.0, SVG Export Plug-In . SVG Version: 6.00 Build 0)  -->
<svg version="1.1" id="Слой_1" xmlns="http://www.w3.org/2000/svg" xmlns:xlink="http://www.w3.org/1999/xlink" x="0px" y="0px"
	 viewBox="0 0 38 26" style="enable-background:new 0 0 38 26;" xml:space="preserve">
<path d="M35,0H3C1.3,0,0,1.3,0,3v20c0,1.7,1.3,3,3,3h32c1.7,0,3-1.3,3-3V3C38,1.3,36.7,0,35,0z M34.5,2L19.1,14.6
	c-0.1,0.1-0.3,0.1-0.3,0L2.7,2.1C2.8,2,2.9,2,3,2H34.5z M35,24H3c-0.6,0-1-0.4-1-1V4.1l15.6,12.1c0.4,0.3,0.9,0.5,1.4,0.5
	c0.5,0,1-0.2,1.4-0.5L36,3.4V23C36,23.6,35.6,24,35,24z"/>
</svg>
