<?xml version="1.0" encoding="utf-8"?>
<!-- Generator: Adobe Illustrator 20.1.0, SVG Export Plug-In . SVG Version: 6.00 Build 0)  -->
<svg version="1.1" id="Слой_1" xmlns="http://www.w3.org/2000/svg" xmlns:xlink="http://www.w3.org/1999/xlink" x="0px" y="0px"
	 viewBox="0 0 22 24" style="enable-background:new 0 0 22 24;" xml:space="preserve">
<path d="M17.1,22.5c-2.2,0.5-4.3,0.5-6.4-0.1c-2.2-0.5-4.1-1.6-5.6-3.3c-0.9-0.9-1.4-2-2-3.2c-0.8-1.7-1.1-3.5-0.8-5.4
	c0.4-3.2,2.1-5.6,5-7.2c0.1,0,0.1-0.1,0.2-0.1c-0.1,0-0.1,0-0.2,0C6.9,3.4,6.6,3.5,6.2,3.7c-1.6,0.7-3,1.6-4.1,2.9
	c-1.1,1.3-1.9,2.9-2,4.6c-0.2,2.4,0.3,4.6,1.6,6.6c2.1,3.3,5.1,5.2,9.1,5.6c1.6,0.2,3.2,0.1,4.7-0.3C16.1,22.9,16.7,22.7,17.1,22.5
	C17.2,22.5,17.2,22.5,17.1,22.5C17.2,22.5,17.1,22.5,17.1,22.5z M7.6,2.6c2-0.6,4-0.7,6-0.3c2,0.3,3.8,1.2,5.2,2.7
	c1.3,1.4,1.9,3,1.7,4.9c-0.1,1.3-0.5,2.6-1.1,3.8c-0.9,1.6-2.1,3-3.7,4c0,0,0,0-0.1,0.1c0.1,0,0.1,0,0.2,0c1.7-0.6,3.2-1.6,4.4-3
	c1.6-2,2.1-4.2,1.7-6.7c-0.4-2.3-1.7-4.1-3.6-5.5c-1.8-1.3-3.9-2-6.1-2C8.1,0.6,4.9,2,2.4,5.1C2,5.6,1.7,6.1,1.4,6.7
	c0.1-0.1,0.2-0.2,0.3-0.3C3.3,4.5,5.2,3.3,7.6,2.6z M16.8,7.2c-0.4-0.5-1-0.8-1.5-1.1c-1.3-0.6-2.7-0.8-4.1-0.7
	c-1.9,0.2-3.4,1-4.6,2.4C6.1,8.3,6,8.7,6,9.2C5.9,10.7,6.5,12,7.5,13c0.8,0.8,1.8,1.3,2.9,1.6c0.1,0,0.2,0.1,0.3,0.1c0,0,0,0,0,0
	c-0.3-0.3-0.6-0.7-0.8-1.2c-0.3-0.9-0.4-1.8-0.3-2.7c0.1-1.3,0.7-2.3,1.9-3c0.4-0.2,0.7-0.4,1.1-0.5c1.4-0.5,2.8-0.5,4.1,0.2
	c0,0,0,0,0.1,0c0,0,0,0,0-0.1C16.8,7.3,16.8,7.3,16.8,7.2z M5.5,9.7c0,0.1-0.1,0.1-0.1,0.2c-1.1,3.3,0.7,6.9,4.1,8.1
	c0.8,0.3,1.6,0.5,2.5,0.4c3.1-0.4,5.4-2,6.8-4.7c0,0,0-0.1,0-0.1c-0.1,0-0.1,0-0.1,0.1c-1.1,1.2-2.5,1.8-4.1,2.1
	c-0.9,0.1-1.8,0-2.7-0.1c-1.4-0.2-2.7-0.6-3.9-1.4c-1.3-0.8-2.1-2-2.5-3.5C5.5,10.3,5.5,10,5.5,9.7z M12.6,10.8
	c-0.4,0.2-0.8,0.3-1.3,0.4c-0.4,0-0.7,0-1.1,0c0,0.1,0.1,0.1,0.1,0.2c0.4,0.7,0.9,1.1,1.6,1.4c1.2,0.4,2.4,0.4,3.6,0
	c1.1-0.5,1.9-1.2,2.3-2.4c0.2-0.8,0.1-1.5-0.5-2.1c-0.3-0.3-0.6-0.5-1-0.7c-1.1-0.4-2.2-0.4-3.2,0c-0.2,0.1-0.3,0.1-0.5,0.2
	c0,0,0,0,0,0c0.1,0,0.1,0,0.2,0.1c0.5,0.3,0.9,0.7,0.9,1.3C13.6,9.9,13.3,10.5,12.6,10.8z M13.7,21.2c-2.8,0.3-5.4-0.3-7.7-2
	c0,0,0,0,0,0.1c0,0,0.1,0.1,0.1,0.1c0.9,0.8,1.9,1.5,3.1,2c1.5,0.6,3.1,0.9,4.8,1c1.4,0,2.7-0.1,4-0.6c0.8-0.3,1.5-0.6,2-1.2
	c0.5-0.6,1-1.3,1-2.2c0-0.2,0-0.3,0-0.5C18.9,19.8,16.5,20.9,13.7,21.2z"/>
</svg>
