<?xml version="1.0" encoding="utf-8"?>
<!-- Generator: Adobe Illustrator 20.1.0, SVG Export Plug-In . SVG Version: 6.00 Build 0)  -->
<svg version="1.1" id="Слой_1" xmlns="http://www.w3.org/2000/svg" xmlns:xlink="http://www.w3.org/1999/xlink" x="0px" y="0px"
	 viewBox="0 0 18 18" style="enable-background:new 0 0 18 18;" xml:space="preserve">
<path d="M17,2h-2V1c0-0.6-0.4-1-1-1s-1,0.4-1,1v1h-3V1c0-0.6-0.4-1-1-1S8,0.4,8,1v1H5V1c0-0.6-0.4-1-1-1S3,0.4,3,1v1H1
	C0.4,2,0,2.4,0,3v14c0,0.6,0.4,1,1,1h16c0.5,0,1-0.4,1-1V3C18,2.4,17.6,2,17,2z M16,16H2V8h14V16z M16,6H2V4h14V6z"/>
</svg>
