<?xml version="1.0" encoding="utf-8"?>
<!-- Generator: Adobe Illustrator 20.1.0, SVG Export Plug-In . SVG Version: 6.00 Build 0)  -->
<svg version="1.1" id="Слой_1" xmlns="http://www.w3.org/2000/svg" xmlns:xlink="http://www.w3.org/1999/xlink" x="0px" y="0px"
	 viewBox="0 0 4 20" style="enable-background:new 0 0 4 20;" xml:space="preserve">
<path d="M3.3,13.8H0.6L0.3,0.3h3.4L3.3,13.8z M0.2,18c0-0.2,0-0.5,0.1-0.7c0.1-0.2,0.2-0.4,0.4-0.6
	s0.3-0.3,0.6-0.4s0.5-0.1,0.8-0.1s0.5,0,0.8,0.1s0.4,0.2,0.6,0.4s0.3,0.3,0.4,0.6c0.1,0.2,0.1,0.4,0.1,0.7c0,0.5-0.2,0.9-0.5,1.2
	S2.6,19.7,2,19.7s-1-0.2-1.3-0.5S0.2,18.5,0.2,18z"/>
</svg>
