<?xml version="1.0" encoding="utf-8"?>
<!-- Generator: Adobe Illustrator 20.1.0, SVG Export Plug-In . SVG Version: 6.00 Build 0)  -->
<svg version="1.1" id="Слой_1" xmlns="http://www.w3.org/2000/svg" xmlns:xlink="http://www.w3.org/1999/xlink" x="0px" y="0px"
	 viewBox="0 0 16 17" style="enable-background:new 0 0 16 17;" xml:space="preserve">
<path d="M12.4,2H8.2V0.4C8.2,0.2,8,0,7.8,0S7.4,0.2,7.4,0.4V2h-4c-1.7,0-3,1.3-3,3v5c0,1.7,1.3,3,3,3H6l-1,2.9
	c-0.1,0.2,0,0.4,0.3,0.5c0,0,0.1,0,0.1,0c0.2,0,0.3-0.1,0.4-0.3l1-3c0,0,0-0.1,0-0.1h0.6v3c0,0.2,0.2,0.4,0.4,0.4
	c0.2,0,0.4-0.2,0.4-0.4v-3H9c0,0,0,0.1,0,0.1l1,3c0.1,0.2,0.2,0.3,0.4,0.3c0,0,0.1,0,0.1,0c0.2-0.1,0.3-0.3,0.3-0.5l-1-2.9h2.6
	c1.7,0,3-1.3,3-3V5C15.4,3.3,14.1,2,12.4,2z M14.6,10c0,1.2-1,2.2-2.2,2.2h-9c-1.2,0-2.2-1-2.2-2.2V5c0-1.2,1-2.2,2.2-2.2h9
	c1.2,0,2.2,1,2.2,2.2V10z"/>
</svg>
