<?xml version="1.0" encoding="utf-8"?>
<!-- Generator: Adobe Illustrator 20.1.0, SVG Export Plug-In . SVG Version: 6.00 Build 0)  -->
<svg version="1.1" id="Слой_1" xmlns="http://www.w3.org/2000/svg" xmlns:xlink="http://www.w3.org/1999/xlink" x="0px" y="0px"
	 viewBox="0 0 15 19" style="enable-background:new 0 0 15 19;" xml:space="preserve">
<path d="M2,17V2h6v4c0,0.6,0.4,1,1,1h4v10H2z M12.2,5H10V2.8L12.2,5z M15,6C15,6,15,6,15,6c0-0.6-0.3-1.3-0.7-1.7
	l-3.6-3.6C10.3,0.3,9.6,0,9,0H1C0.5,0,0,0.4,0,1v17c0,0.5,0.5,1,1,1h13c0.6,0,1-0.5,1-1V6L15,6L15,6L15,6z"/>
</svg>
