<?xml version="1.0" encoding="utf-8"?>
<!-- Generator: Adobe Illustrator 20.1.0, SVG Export Plug-In . SVG Version: 6.00 Build 0)  -->
<svg version="1.1" id="Слой_1" xmlns="http://www.w3.org/2000/svg" xmlns:xlink="http://www.w3.org/1999/xlink" x="0px" y="0px"
	 viewBox="0 0 18 17" style="enable-background:new 0 0 18 17;" xml:space="preserve">
<path d="M10.2,17H7.8c-1,0-1.8-0.8-1.8-1.8v-4.6L0.6,5.2C0.3,4.9,0.1,4.5,0.1,4V1.8c0-1,0.8-1.8,1.8-1.8h14.2c1,0,1.8,0.8,1.8,1.8V4
	c0,0.5-0.2,0.9-0.5,1.3L12,10.6v4.6C12,16.2,11.2,17,10.2,17z M8,15h2V9.8l5.9-5.9V2H2.1v1.9L8,9.8V15z M2,3.8L2,3.8L2,3.8z M16.1,2
	L16.1,2L16.1,2z"/>
</svg>
