<?xml version="1.0" encoding="utf-8"?>
<!-- Generator: Adobe Illustrator 20.1.0, SVG Export Plug-In . SVG Version: 6.00 Build 0)  -->
<svg version="1.1" id="Слой_1" xmlns="http://www.w3.org/2000/svg" xmlns:xlink="http://www.w3.org/1999/xlink" x="0px" y="0px"
	 viewBox="0 0 17 17" style="enable-background:new 0 0 17 17;" xml:space="preserve">
<path d="M13.8,0H3.2C2.3,0,1.6,0.3,0.9,0.9C0.3,1.6,0,2.3,0,3.2v10.6c0,0.9,0.3,1.6,0.9,2.3C1.6,16.7,2.3,17,3.2,17h10.6
	c0.9,0,1.6-0.3,2.3-0.9c0.6-0.6,0.9-1.4,0.9-2.3V3.2c0-0.9-0.3-1.6-0.9-2.3C15.4,0.3,14.7,0,13.8,0z M7,10.2c-0.5,0.5-1,0.7-1.7,0.7
	s-1.2-0.2-1.7-0.7C3.3,9.7,3,9.1,3,8.5s0.2-1.2,0.7-1.7c0.5-0.5,1-0.7,1.7-0.7S6.6,6.4,7,6.8c0.5,0.5,0.7,1,0.7,1.7S7.5,9.7,7,10.2z
	 M13.3,10.2c-0.5,0.5-1,0.7-1.7,0.7c-0.6,0-1.2-0.2-1.7-0.7c-0.5-0.5-0.7-1-0.7-1.7S9.5,7.3,10,6.8c0.5-0.5,1-0.7,1.7-0.7
	c0.6,0,1.2,0.2,1.7,0.7c0.5,0.5,0.7,1,0.7,1.7S13.7,9.7,13.3,10.2z"/>
</svg>
