<?xml version="1.0" encoding="utf-8"?>
<!-- Generator: Adobe Illustrator 20.1.0, SVG Export Plug-In . SVG Version: 6.00 Build 0)  -->
<svg version="1.1" id="Слой_1" xmlns="http://www.w3.org/2000/svg" xmlns:xlink="http://www.w3.org/1999/xlink" x="0px" y="0px"
	 viewBox="0 0 17 20" style="enable-background:new 0 0 17 20;" xml:space="preserve">
<path d="M15.6,3.1c0.1-0.5,0.1-1,0.1-1.6c-0.1-0.6-0.2-1.1-0.3-1.5c-0.9,0-1.6,0.2-2.1,0.5c-0.6,0.3-1,0.5-1.3,0.7
	C9.9,0.7,7.9,0.8,5.9,1.3C4.9,0.5,3.8,0.1,2.6,0C2.1,1.2,2.1,2.3,2.4,3.3c-0.4,0.5-0.8,1-1,1.6C1.1,5.8,1,6.8,1.1,7.9s0.5,2,1.1,2.7
	c0.5,0.5,1.1,0.9,1.9,1.2s1.8,0.5,3.1,0.7c-0.4,0.2-0.7,0.3-0.8,0.3S6.1,13.1,6,13.3c-0.2,0.2-0.3,0.4-0.4,0.7
	c-1,0.7-1.9,0.6-2.9-0.2c-0.2-0.2-0.5-0.4-0.8-0.8c-0.3-0.4-0.6-0.7-0.9-0.8c0,0-0.2-0.1-0.4-0.1c-0.2,0-0.4,0-0.6,0.2
	c-0.1,0.1-0.1,0.2,0,0.2c0.7,0.6,1.2,1.1,1.4,1.5c0.3,0.6,0.6,1,0.9,1.3c1,0.7,2.1,0.9,3.1,0.5c0,0.2,0,0.6,0,1.3s0,1.1-0.1,1.2
	c-0.1,0.2-0.2,0.3-0.3,0.5c0,0-0.1,0.1-0.2,0.2S4.6,19,4.6,19.1c-0.1,0.1-0.1,0.1,0,0.2c0,0.1,0.2,0.2,0.5,0.2
	c0.7,0,1.2-0.2,1.6-0.7c0.1-0.2,0.2-0.4,0.2-0.7v-2.8c0-0.3,0.1-0.5,0.2-0.7c0.1-0.1,0.3-0.2,0.4-0.3V18c0,0.3,0,0.6-0.1,0.8
	s-0.1,0.4-0.1,0.5c-0.2,0.3-0.3,0.5-0.3,0.6c0,0,0.1,0.1,0.2,0.1c0.7,0,1.2-0.3,1.5-0.9c0.2-0.4,0.3-0.9,0.3-1.3v-3.6h0.8v3.6
	c0,0.5,0.1,0.9,0.3,1.3c0.2,0.4,0.5,0.7,1,0.8c0.2,0.1,0.4,0.1,0.5,0.1c0.1,0,0.1,0,0.1-0.1c0-0.2-0.1-0.4-0.3-0.6
	c-0.2-0.2-0.2-0.6-0.2-1.3v-3.6c0.2,0,0.3,0.1,0.5,0.3c0.2,0.1,0.2,0.4,0.2,0.7v2.8c0,0.3,0.1,0.5,0.2,0.7c0.4,0.5,0.9,0.7,1.6,0.7
	c0.3,0,0.4-0.1,0.5-0.2c0-0.1,0-0.2-0.1-0.3c-0.1-0.1-0.3-0.2-0.4-0.3c-0.2-0.1-0.3-0.3-0.4-0.5l-0.1-1.8v-1.8
	c-0.1-0.6-0.2-1.1-0.5-1.4c-0.3-0.3-0.7-0.6-1.2-0.8c1.2-0.1,2.2-0.3,2.9-0.6c1.1-0.5,1.8-1.2,2.3-2C16.8,9,17,8,17,6.8
	C17,5.3,16.5,4,15.6,3.1z"/>
</svg>