<?xml version="1.0" encoding="utf-8"?>
<!-- Generator: Adobe Illustrator 20.1.0, SVG Export Plug-In . SVG Version: 6.00 Build 0)  -->
<svg version="1.1" id="Слой_1" xmlns="http://www.w3.org/2000/svg" xmlns:xlink="http://www.w3.org/1999/xlink" x="0px" y="0px"
	 viewBox="0 0 22 14" style="enable-background:new 0 0 22 14;" xml:space="preserve">
<path d="M0,6.7c0.1-3.5,3.3-6.6,6.8-6.5c1.7-0.1,3.2,0.6,4.6,1.7c-0.5,0.6-1.1,1.3-1.8,1.8C8,2.6,5.9,2.3,4.3,3.6
	C2.1,5.1,2,8.7,4.1,10.3c2.1,1.9,5.9,0.9,6.6-2c-1.3,0-2.6,0-3.9,0c0-0.7,0-1.6,0-2.3c2.2,0,4.4,0,6.5,0c0.1,1.8-0.1,3.8-1.3,5.2
	c-1.7,2.4-5.1,3-7.7,2.1C1.7,12.3-0.2,9.5,0,6.7z M18,4.4h2c0,0.6,0,1.3,0,2c0.6,0,1.3,0,2,0v2c-0.6,0-1.3,0-2,0c0,0.6,0,1.3,0,2h-2
	c0-0.6,0-1.3,0-2c-0.6,0-1.3,0-2,0V6.3c0.6,0,1.3,0,2,0C18,5.7,18,5,18,4.4z"/>
</svg>
