<?xml version="1.0" encoding="utf-8"?>
<!-- Generator: Adobe Illustrator 20.1.0, SVG Export Plug-In . SVG Version: 6.00 Build 0)  -->
<svg version="1.1" id="Layer_1" xmlns="http://www.w3.org/2000/svg" xmlns:xlink="http://www.w3.org/1999/xlink" x="0px" y="0px"
	 viewBox="0 0 9 9.6" style="enable-background:new 0 0 9 9.6;" xml:space="preserve">
<path d="M8.7,5.2c0,0-0.7,0.4-1.8,1L5.5,4.8l1.4-1.4c1,0.6,1.8,1,1.8,1S9,4.6,9,4.8C8.9,5.1,8.7,5.2,8.7,5.2z M5.3,4.6L0.7,0
	c0.1,0,0.2,0.1,0.4,0.1c0.6,0.3,3.5,2,5.6,3.1L5.3,4.6z M0.2,9.6C0,9.4,0,9.1,0,9.1V5.4V5.1V4.6V4.3V0.6c0,0,0-0.3,0.2-0.5L5,4.9
	L0.2,9.6z M5.3,5l1.3,1.3C4.5,7.5,1.6,9.1,1,9.4C0.8,9.5,0.7,9.5,0.6,9.5L5.3,5z"/>
</svg>
