<?xml version="1.0" encoding="utf-8"?>
<!-- Generator: Adobe Illustrator 20.1.0, SVG Export Plug-In . SVG Version: 6.00 Build 0)  -->
<svg version="1.1" id="Слой_1" xmlns="http://www.w3.org/2000/svg" xmlns:xlink="http://www.w3.org/1999/xlink" x="0px" y="0px"
	 viewBox="0 0 22 19" style="enable-background:new 0 0 22 19;" xml:space="preserve">
<path d="M11,19c-0.4,0-0.7-0.1-1-0.4l-0.1-0.1l-7.7-7.7c-2.4-2.4-2.4-6.5,0-9C3.5,0.6,5,0,6.7,0C8.3,0,9.9,0.6,11,1.7
	c2.4-2.2,6.3-2.2,8.8,0.2l0,0c2.4,2.4,2.4,6.5,0,9L12,18.6C11.7,18.9,11.4,19,11,19z M6.7,1.6C5.4,1.6,4.3,2.1,3.3,3
	c-1.8,1.8-1.8,4.9,0,6.8l7.7,7.7l7.8-7.7c1.8-1.8,1.8-4.9,0-6.8c-1.8-1.8-4.9-1.8-6.8,0L11,3.8l-0.9-0.9C9.2,2.1,8,1.6,6.7,1.6z"/>
</svg>
