<?xml version="1.0" encoding="utf-8"?>
<!-- Generator: Adobe Illustrator 20.1.0, SVG Export Plug-In . SVG Version: 6.00 Build 0)  -->
<svg version="1.1" id="Слой_1" xmlns="http://www.w3.org/2000/svg" xmlns:xlink="http://www.w3.org/1999/xlink" x="0px" y="0px"
	 viewBox="0 0 22 19" style="enable-background:new 0 0 22 19;" xml:space="preserve">
<path d="M22,8.4L11,0.1L0,8.4L1.3,10l1.4-1v7.8c0,1.1,0.9,2.1,2.1,2.1h3.1C9,18.9,10,18,10,16.8v-3.7h2v3.7c0,1.1,0.9,2.1,2.1,2.1
	h3.1c1.1,0,2.1-0.9,2.1-2.1V8.9l1.5,1.1L22,8.4z M17.2,7.5v9.4h-3.1v-5.8H7.8v5.8H4.7V7.5l0,0L11,2.7L17.2,7.5L17.2,7.5z"/>
</svg>
