<?xml version="1.0" encoding="utf-8"?>
<!-- Generator: Adobe Illustrator 20.1.0, SVG Export Plug-In . SVG Version: 6.00 Build 0)  -->
<svg version="1.1" id="Слой_1" xmlns="http://www.w3.org/2000/svg" xmlns:xlink="http://www.w3.org/1999/xlink" x="0px" y="0px"
	 viewBox="0 0 11 20" style="enable-background:new 0 0 11 20;" xml:space="preserve">
<path d="M2.2,6.6c0.1,0.1,0.1,0.2,0.2,0.2l3.1,2.3l3.1-2.3c0.1,0,0.1-0.1,0.2-0.2L5.6,7.5c-0.1,0-0.2,0-0.3,0
	L2.2,6.6L2.2,6.6z M2,5.5c0,0,0.1,0,0.1,0l3.4,1l3.4-1c0,0,0.1,0,0.1,0V1H2V5.5L2,5.5z M9,17.5c0,0-0.1,0-0.1,0l-3.4-1l-3.4,1
	c0,0-0.1,0-0.1,0V19h7V17.5L9,17.5z M9,16.5V14c0-0.2-0.2-0.7-0.4-0.8l-3.1-2.3l-3.1,2.3C2.2,13.3,2,13.8,2,14v2.5l3.4-1
	c0.1,0,0.2,0,0.3,0L9,16.5z M1,19v-5c0-0.6,0.4-1.3,0.8-1.6l2.4-1.8l0.2-0.2L5,10L4.4,9.6L4.2,9.4L1.8,7.6C1.4,7.3,1,6.6,1,6V1H0.5
	C0.2,1,0,0.8,0,0.5S0.2,0,0.5,0h10C10.8,0,11,0.2,11,0.5S10.8,1,10.5,1H10v5c0,0.6-0.4,1.3-0.8,1.6L6.8,9.4L6.6,9.6L6,10l0.6,0.4
	l0.2,0.2l2.4,1.8c0.4,0.3,0.8,1,0.8,1.6v5h0.5c0.3,0,0.5,0.2,0.5,0.5S10.8,20,10.5,20H10l-9,0l-0.5,0C0.2,20,0,19.8,0,19.5
	S0.2,19,0.5,19H1z"/>
</svg>
