<svg xmlns="http://www.w3.org/2000/svg" viewBox="0 0 30 30">
  <path d="M21.05,0H8.95A8.93,8.93,0,0,0,0,8.95v12.1A8.93,8.93,0,0,0,8.95,30h12.1A8.93,8.93,0,0,0,30,21.05V8.95A8.93,8.93,0,0,0,21.05,0Zm5.91,21A5.91,5.91,0,0,1,21.05,27H8.95A5.91,5.91,0,0,1,3,21.05V8.95A5.91,5.91,0,0,1,8.95,3h12.1A5.91,5.91,0,0,1,27,8.95ZM15,7.25A7.75,7.75,0,1,0,22.75,15,7.75,7.75,0,0,0,15,7.25Zm0,12.48A4.73,4.73,0,1,1,19.73,15,4.73,4.73,0,0,1,15,19.73ZM22.76,5.46A1.86,1.86,0,1,1,20.9,7.31,1.86,1.86,0,0,1,22.76,5.46Z"/>
</svg>
