<?xml version="1.0" encoding="utf-8"?>
<!-- Generator: Adobe Illustrator 20.1.0, SVG Export Plug-In . SVG Version: 6.00 Build 0)  -->
<svg version="1.1" id="Слой_1" xmlns="http://www.w3.org/2000/svg" xmlns:xlink="http://www.w3.org/1999/xlink" x="0px" y="0px"
	 viewBox="0 0 18 17" style="enable-background:new 0 0 18 17;" xml:space="preserve">
<path d="M16,3h-4V1c0-0.6-0.4-1-1-1H7C6.4,0,6,0.4,6,1v2H2C0.9,3,0,3.9,0,5v6c0,0.7,0.4,1.4,1,1.7V15c0,1.1,0.9,2,2,2h12
	c1.1,0,2-0.9,2-2v-2.3c0.6-0.3,1-1,1-1.7V5C18,3.9,17.1,3,16,3z M8,2h2v1H8V2z M15,15C15,15,15,15,15,15L3,15c0,0,0,0,0,0v-2h12V15z
	 M16,11h-5.7H2c0,0,0-6,0-6h5h4h5C16,5,16,11,16,11z"/>
</svg>
