<?xml version="1.0" encoding="utf-8"?>
<!-- Generator: Adobe Illustrator 20.1.0, SVG Export Plug-In . SVG Version: 6.00 Build 0)  -->
<svg version="1.1" xmlns="http://www.w3.org/2000/svg" xmlns:xlink="http://www.w3.org/1999/xlink" x="0px" y="0px"
	 viewBox="0 0 15 14" style="enable-background:new 0 0 15 14;" xml:space="preserve">
<path d="M14.7,8.6V14h-3.2v-5c0-1.3-0.5-2.1-1.6-2.1C9.1,6.8,8.6,7.4,8.4,8C8.3,8.2,8.3,8.4,8.3,8.7V14H5.1
	c0,0,0-8.5,0-9.4h3.2v1.3c0,0,0,0,0,0h0v0c0.4-0.6,1.2-1.6,2.8-1.6C13.2,4.3,14.7,5.7,14.7,8.6z M1.8,0C0.7,0,0,0.7,0,1.6
	c0,0.9,0.7,1.6,1.7,1.6h0c1.1,0,1.8-0.7,1.8-1.6C3.5,0.7,2.9,0,1.8,0z M0.2,14h3.2V4.6H0.2V14z"/>
</svg>