<?xml version="1.0" encoding="utf-8"?>
<!-- Generator: Adobe Illustrator 20.1.0, SVG Export Plug-In . SVG Version: 6.00 Build 0)  -->
<svg version="1.1" id="Слой_1" xmlns="http://www.w3.org/2000/svg" xmlns:xlink="http://www.w3.org/1999/xlink" x="0px" y="0px"
	 viewBox="0 0 18 15" style="enable-background:new 0 0 18 15;" xml:space="preserve">
<path d="M5.3,14.4c-0.8,0-1.5-0.3-2-0.8l-1.9-1.9c-0.5-0.5-0.8-1.2-0.8-2c0-0.8,0.3-1.5,0.8-2l3.9-3.9c1.1-1.1,2.9-1.1,4,0l1.9,1.9
	c0.8,0.8,1,1.9,0.7,3c-0.1,0.1-0.3,0.5-0.6,1L10.5,9c0.2-0.3,0.4-0.7,0.5-0.8c0.2-0.7,0.1-1.4-0.4-1.9L8.6,4.4
	C7.9,3.7,6.7,3.7,6,4.4L2.1,8.3C1.7,8.6,1.5,9.1,1.5,9.6s0.2,1,0.5,1.3L4,12.8c0.7,0.7,1.9,0.7,2.6,0l1.3-1.3l0.7,0.7l-1.3,1.3
	C6.8,14.1,6.1,14.4,5.3,14.4z"/>
<path d="M11.2,12.2c-0.8,0-1.5-0.3-2-0.8L7.2,9.4c-0.8-0.8-1-1.9-0.7-3L7,5.7l0.9,0.5L7.5,6.8C7.3,7.4,7.5,8.2,8,8.7l1.9,1.9
	c0.7,0.7,1.9,0.7,2.6,0l3.9-3.9c0.3-0.3,0.5-0.8,0.5-1.3c0-0.5-0.2-1-0.5-1.3l-1.9-1.9c-0.7-0.7-1.9-0.7-2.6,0L11,3l-0.7-0.7
	l0.9-0.9c1.1-1.1,2.9-1.1,4,0l1.9,1.9c0.5,0.5,0.8,1.2,0.8,2c0,0.8-0.3,1.5-0.8,2l-3.9,3.9C12.7,11.9,11.9,12.2,11.2,12.2z"/>
</svg>
