<?xml version="1.0" encoding="utf-8"?>
<!-- Generator: Adobe Illustrator 20.1.0, SVG Export Plug-In . SVG Version: 6.00 Build 0)  -->
<svg version="1.1" id="Слой_1" xmlns="http://www.w3.org/2000/svg" xmlns:xlink="http://www.w3.org/1999/xlink" x="0px" y="0px"
	 viewBox="0 0 12 14" style="enable-background:new 0 0 12 14;" xml:space="preserve">
<path d="M6,14L1.8,9.4c-2-2.2-2-5.4,0-7.6l0,0c2.1-2.3,5.7-2.5,8-0.4s2.5,5.7,0.4,8L6,14z M6,1.1c-0.1,0-0.1,0-0.2,0
	C4.6,1.2,3.4,1.7,2.6,2.5C0.9,4.3,0.9,7,2.6,8.8L6,12.5l3.4-3.7C11.1,6.9,11,4,9.1,2.2C8.3,1.5,7.2,1.1,6,1.1z"/>
</svg>
