<?xml version="1.0" encoding="utf-8"?>
<!-- Generator: Adobe Illustrator 20.1.0, SVG Export Plug-In . SVG Version: 6.00 Build 0)  -->
<svg version="1.1" id="Слой_1" xmlns="http://www.w3.org/2000/svg" xmlns:xlink="http://www.w3.org/1999/xlink" x="0px" y="0px"
	 viewBox="0 0 16 13" style="enable-background:new 0 0 16 13;" xml:space="preserve">
<path d="M0.1,3.7V2.2c0.5,0,0.9-0.2,1.7-0.6c0.1,0,0.2-0.1,0.3-0.2c1.2-0.8,1.9-1.1,3-1.1c0.9,0,1.7,0.4,2.6,1.1
	c0.1,0.1,0.2,0.2,0.3,0.3c0,0,0.3,0.2,0.3,0.3c1.1,1,1.8,1.3,2.8,1.3c1,0,1.6-0.3,2.3-0.9c0.1,0,0.4-0.3,0.5-0.4
	c0.6-0.5,1.2-0.8,1.9-0.8v1.5c-0.3,0-0.6,0.1-1,0.4c-0.1,0.1-0.4,0.4-0.5,0.4c-1,0.8-1.9,1.2-3.3,1.2c-1.4,0-2.3-0.5-3.7-1.7
	C7.3,3,7.1,2.8,7.1,2.8C7,2.7,6.9,2.6,6.8,2.6C6.1,2,5.6,1.8,5.1,1.8C4.4,1.8,3.9,2,2.9,2.6C2.8,2.7,2.7,2.7,2.6,2.8
	C1.7,3.4,1,3.7,0.1,3.7 M0.1,7.7V6.2c0.5,0,0.9-0.2,1.7-0.6c0.1,0,0.2-0.1,0.3-0.2c1.2-0.8,1.9-1.1,3-1.1c0.9,0,1.7,0.4,2.6,1.1
	c0.1,0.1,0.2,0.2,0.3,0.3c0,0,0.3,0.2,0.3,0.3c1.1,1,1.8,1.3,2.8,1.3c1,0,1.6-0.3,2.3-0.9c0.1,0,0.4-0.3,0.5-0.4
	c0.6-0.5,1.2-0.8,1.9-0.8v1.5c-0.3,0-0.6,0.1-1,0.4c-0.1,0.1-0.4,0.4-0.5,0.4c-1,0.8-1.9,1.2-3.3,1.2c-1.4,0-2.3-0.5-3.7-1.7
	C7.3,7,7.1,6.8,7.1,6.8C7,6.7,6.9,6.6,6.8,6.6C6.1,6,5.6,5.8,5.1,5.8C4.4,5.8,3.9,6,2.9,6.6C2.8,6.7,2.7,6.7,2.6,6.8
	C1.7,7.4,1,7.7,0.1,7.7 M0.1,11.7v-1.5c0.5,0,0.9-0.2,1.7-0.6c0.1,0,0.2-0.1,0.3-0.2c1.2-0.8,1.9-1.1,3-1.1c0.9,0,1.7,0.4,2.6,1.1
	c0.1,0.1,0.2,0.2,0.3,0.3c0,0,0.3,0.2,0.3,0.3c1.1,1,1.8,1.3,2.8,1.3c1,0,1.6-0.3,2.3-0.9c0.1,0,0.4-0.3,0.5-0.4
	c0.6-0.5,1.2-0.8,1.9-0.8v1.5c-0.3,0-0.6,0.1-1,0.4c-0.1,0.1-0.4,0.4-0.5,0.4c-1,0.8-1.9,1.2-3.3,1.2c-1.4,0-2.3-0.5-3.7-1.7
	c-0.1-0.1-0.3-0.2-0.3-0.3c-0.1-0.1-0.2-0.2-0.3-0.2C6.1,10,5.6,9.8,5.1,9.8c-0.7,0-1.2,0.2-2.2,0.8c-0.2,0.1-0.2,0.2-0.3,0.2
	C1.7,11.4,1,11.7,0.1,11.7"/>
</svg>
