<?xml version="1.0" encoding="utf-8"?>
<!-- Generator: Adobe Illustrator 20.1.0, SVG Export Plug-In . SVG Version: 6.00 Build 0)  -->
<svg version="1.1" id="Слой_1" xmlns="http://www.w3.org/2000/svg" xmlns:xlink="http://www.w3.org/1999/xlink" x="0px" y="0px"
	 viewBox="0 0 16 15" style="enable-background:new 0 0 16 15;" xml:space="preserve">
<path id="Religious" d="M7.9,0C3.8,0,0.4,3.4,0.4,7.5c0,4.1,3.4,7.5,7.5,7.5s7.5-3.4,7.5-7.5c0-0.4,0-0.7-0.1-1.1
	C14.9,9,12.6,11,9.9,11c-3,0-5.5-2.5-5.5-5.5c0-2.7,2-5,4.6-5.4C8.6,0,8.3,0,7.9,0 M5.1,1.4C4.2,2.5,3.6,4,3.6,5.5
	c0,3.5,2.8,6.3,6.3,6.3c1.5,0,3-0.6,4.1-1.5c-1.1,2.3-3.4,3.9-6.1,3.9c-3.7,0-6.7-3-6.7-6.7C1.2,4.8,2.8,2.5,5.1,1.4"/>
</svg>
