<?xml version="1.0" encoding="utf-8"?>
<!-- Generator: Adobe Illustrator 20.1.0, SVG Export Plug-In . SVG Version: 6.00 Build 0)  -->
<svg version="1.1" id="Слой_1" xmlns="http://www.w3.org/2000/svg" xmlns:xlink="http://www.w3.org/1999/xlink" x="0px" y="0px"
	 viewBox="0 0 19 13" style="enable-background:new 0 0 19 13;" xml:space="preserve">
<path d="M0,12.9V0.1l0.7,0.2c0,0,4.4,1.6,8.8,1.6s8.8-1.6,8.8-1.6L19,0.1v12.9l-0.7-0.2c0,0-4.4-1.6-8.8-1.6s-8.8,1.6-8.8,1.6
	L0,12.9z M9.5,10.1c3.5,0,7,0.9,8.4,1.5v-10C16.5,2,13,3,9.5,3s-7-1-8.4-1.5v10C2.5,11,6,10.1,9.5,10.1z"/>
</svg>
