<?xml version="1.0" encoding="utf-8"?>
<!-- Generator: Adobe Illustrator 20.1.0, SVG Export Plug-In . SVG Version: 6.00 Build 0)  -->
<svg version="1.1" id="Слой_1" xmlns="http://www.w3.org/2000/svg" xmlns:xlink="http://www.w3.org/1999/xlink" x="0px" y="0px"
	 viewBox="0 0 18 18" style="enable-background:new 0 0 18 18;" xml:space="preserve">
<path id="Add-post" d="M7.2,12.9l-2.2-2.2l8.7-8.7l2.2,2.2L7.2,12.9z M2.4,15.6l0.7-2.9l0.5-0.5l1,1.1l1.1,1l-0.5,0.5L2.4,15.6z
	 M17.4,2.8l-2.2-2.2c-0.8-0.8-2.2-0.8-2.9,0l-9.4,9.4l-1.4,1.4c-0.1,0.1-0.2,0.3-0.3,0.5L0,16.7c-0.2,0.7,0.5,1.4,1.2,1.2L6,16.8
	c0.2,0,0.3-0.1,0.5-0.3l1.4-1.4l9.4-9.4C18.2,4.9,18.2,3.6,17.4,2.8L17.4,2.8z"/>
</svg>
