<?xml version="1.0" encoding="utf-8"?>
<!-- Generator: Adobe Illustrator 20.1.0, SVG Export Plug-In . SVG Version: 6.00 Build 0)  -->
<svg version="1.1" id="Слой_1" xmlns="http://www.w3.org/2000/svg" xmlns:xlink="http://www.w3.org/1999/xlink" x="0px" y="0px"
	 viewBox="0 0 16 16" style="enable-background:new 0 0 16 16;" xml:space="preserve">
<path d="M15.3,1.7l-1.1-1.1c-0.9-0.9-2.3-0.9-3.2,0l-9.5,9.6c-0.1,0.1-0.1,0.1-0.1,0.2l-1.4,4.9c0,0.2,0,0.3,0.1,0.5
	C0.3,16,0.4,16,0.5,16h0.1l4.9-1.4c0.1,0,0.1-0.1,0.2-0.1L15.2,5c0.4-0.4,0.6-1,0.6-1.6C16,2.7,15.8,2.1,15.3,1.7z M5.2,13.7
	l-3.9,1.2l1.2-3.9l7.7-7.7L13,6.1L5.2,13.7z M14.6,4.2l-1.1,1.1l-2.9-2.9l1.1-1.1c0.5-0.5,1.3-0.5,1.8,0l1.1,1.1
	c0.2,0.2,0.3,0.5,0.3,0.9C15,3.6,14.8,3.9,14.6,4.2z"/>
</svg>
