<?xml version="1.0" encoding="utf-8"?>
<!-- Generator: Adobe Illustrator 20.1.0, SVG Export Plug-In . SVG Version: 6.00 Build 0)  -->
<svg version="1.1" id="Слой_1" xmlns="http://www.w3.org/2000/svg" xmlns:xlink="http://www.w3.org/1999/xlink" x="0px" y="0px"
	 viewBox="0 0 16 16" style="enable-background:new 0 0 16 16;" xml:space="preserve">
<path d="M11.8,16c-0.9,0-3.8-0.3-7.7-4c-3.7-3.5-4-7.3-4-7.8c0-0.5,0.1-2.6,2.7-3.9C3,0,3.9-0.2,4.3,0.2c0.1,0.1,2,3.4,2.1,3.4
	C6.6,3.9,6.6,4,6.6,4.2c0,0.3-0.1,0.5-0.4,0.9C5.9,5.4,5.6,5.6,5.4,5.8C5.2,5.9,5,6.1,4.8,6.2C4.6,6.3,4.6,6.4,4.6,6.4l0,0
	c0,0,0.1,1.1,2.1,2.9s3,2.2,3,2.2l0,0c0,0,0.1,0,0.1-0.1c0.1-0.1,0.2-0.3,0.4-0.5c0.3-0.4,0.5-0.6,0.6-0.7c0.5-0.5,1-0.5,1.4-0.3
	c0,0,3.2,1.8,3.4,2c0.4,0.4,0.1,1.4,0,1.6l0,0C15,15.5,12.8,16,11.8,16C11.9,16,11.9,16,11.8,16z M3.6,1.1c-0.1,0-0.3,0-0.4,0.1
	C1.1,2.3,1,3.7,1,4.2c0.1,0.3,0.4,3.8,3.8,7c3.8,3.6,6.5,3.7,7,3.7c0,0,2.1,0,3-2c0.1-0.1,0.1-0.3,0.1-0.4c-0.4-0.3-2.9-1.7-3-1.8
	c0,0-0.1,0-0.2,0.1c-0.1,0.1-0.3,0.4-0.5,0.6c-0.2,0.3-0.4,0.5-0.5,0.6c-0.2,0.3-0.6,0.6-1.3,0.4C9.1,12.4,8.1,11.7,6,10
	C3.8,8,3.6,6.7,3.6,6.4C3.6,6,3.8,5.7,4,5.6c0.2-0.2,0.4-0.4,0.7-0.6C5,4.8,5.2,4.6,5.4,4.4c0.1-0.1,0.2-0.2,0.2-0.2
	C5.4,4,4,1.7,3.6,1.1z"/>
</svg>
