<?xml version="1.0" encoding="utf-8"?>
<!-- Generator: Adobe Illustrator 21.0.2, SVG Export Plug-In . SVG Version: 6.00 Build 0)  -->
<svg version="1.1" id="Слой_1" xmlns="http://www.w3.org/2000/svg" xmlns:xlink="http://www.w3.org/1999/xlink" x="0px" y="0px"
	 viewBox="0 0 17 13" style="enable-background:new 0 0 17 13;" xml:space="preserve">
<title>Art &amp; Cultures</title>
<desc>Created with Sketch.</desc>
<path d="M14.5,0h-12C1.1,0,0,1.1,0,2.4v8.1C0,11.9,1.1,13,2.5,13h12c1.4,0,2.5-1.1,2.5-2.4V2.4C17,1.1,15.9,0,14.5,0z M2.5,1.3h2.1
	v0.3c0,1.6-1.4,3-3,3H1.3V2.4C1.3,1.8,1.8,1.3,2.5,1.3z M15.7,10.6c0,0.6-0.5,1.2-1.2,1.2H3.7l4.2-5l3.8,4.4l1-0.8l-1.1-1.3L12.5,8
	l1.9,2.4l1-0.8l-2.9-3.7l-1.7,2.2L7.9,4.8l-5.3,6.2l1,0.8H2.5c-0.7,0-1.2-0.5-1.2-1.2V5.8h0.3c2.4,0,4.3-1.9,4.3-4.2V1.3h8.6
	c0.7,0,1.2,0.5,1.2,1.2V10.6z"/>
</svg>
