<?xml version="1.0" encoding="utf-8"?>
<!-- Generator: Adobe Illustrator 20.1.0, SVG Export Plug-In . SVG Version: 6.00 Build 0)  -->
<svg version="1.1" id="Слой_1" xmlns="http://www.w3.org/2000/svg" xmlns:xlink="http://www.w3.org/1999/xlink" x="0px" y="0px"
	 viewBox="0 0 18 13" style="enable-background:new 0 0 18 13;" xml:space="preserve">
<polygon points="3,11.4 3.6,11.9 8.2,6.3 12.4,11.3 13,10.8 8.2,5 "/>
<polygon points="11.4,8.8 12,9.2 13.2,7.7 15.3,10.4 16,9.9 13.2,6.3 "/>
<path d="M15.4,0h-13c-1.1,0-2,0.9-2,2v9c0,1.1,0.9,2,2,2h13c1.1,0,2-0.9,2-2V2C17.4,0.9,16.5,0,15.4,0z M1.2,2
	c0-0.7,0.5-1.2,1.2-1.2H5V1c0,2-1.6,3.6-3.6,3.6H1.2V2z M16.6,11c0,0.7-0.5,1.2-1.2,1.2h-13c-0.7,0-1.2-0.5-1.2-1.2V5.4h0.2
	c2.4,0,4.4-2,4.4-4.4V0.8h9.6c0.7,0,1.2,0.5,1.2,1.2V11z"/>
</svg>
