<?xml version="1.0" encoding="utf-8"?>
<!-- Generator: Adobe Illustrator 20.1.0, SVG Export Plug-In . SVG Version: 6.00 Build 0)  -->
<svg version="1.1" id="Слой_1" xmlns="http://www.w3.org/2000/svg" xmlns:xlink="http://www.w3.org/1999/xlink" x="0px" y="0px"
	 viewBox="0 0 18 18" style="enable-background:new 0 0 18 18;" xml:space="preserve">
<path d="M13.9,17.3L13.9,17.3C13.9,17.3,13.9,17.3,13.9,17.3z M1.2,4.4l5.9,3c0.6,0.3,0.7,1,0.3,1.5l-3.4,3.9
	c-0.3,0.3-0.7,0.4-1.1,0.3c-0.4-0.1-0.8-0.2-1-0.2c-0.2,0-0.2,0-0.3,0.1c0,0,0,0.1,0,0.2c0,0.1,0,0.3,0.1,0.4
	c-0.1-0.1,2.7,2.7,2.7,2.7c0.1,0.1,0.3,0.1,0.4,0.1c0.1,0,0.2,0,0.2,0c0,0,0-0.1,0.1-0.3c0-0.3,0-0.6-0.2-1c-0.1-0.4,0-0.8,0.3-1.1
	l3.9-3.4c0.5-0.4,1.3-0.3,1.5,0.3l3,5.9l0.5-0.3L12.4,8c-0.1-0.3,0-0.7,0.3-0.9c0.3-0.3,0.8-0.7,1.3-1.3c0.1-0.1,0.1-0.1,0.1-0.1
	C14.8,5,16.3,3.5,16,3.8c0.6-0.7,1-1.3,1-1.9c0-0.3-0.1-0.5-0.2-0.6C16.6,1.1,16.4,1,16.1,1c-0.1,0-0.1,0-0.1,0
	c-0.6,0-1.2,0.4-1.8,1c0.3-0.3-1.2,1.2-1.9,1.9c-0.1,0.1-0.1,0.1-0.1,0.1c-0.5,0.5-0.9,1-1.3,1.3c-0.2,0.3-0.6,0.4-0.9,0.3L1.4,3.8
	L1.2,4.4z M6.7,8.2L0.3,5C0,4.9-0.1,4.6,0,4.4L0.7,3C0.8,2.8,1,2.7,1.2,2.8l9,1.8c1.1-1.1,3.3-3.3,3.3-3.3C14.3,0.5,15.1,0,16,0
	c0.1,0,0.1,0,0.2,0c0.5,0,1,0.2,1.3,0.5C17.8,0.9,18,1.4,18,1.8c0,0.9-0.5,1.8-1.3,2.6c0,0-2.2,2.2-3.3,3.3l1.8,9
	c0,0.2-0.1,0.4-0.2,0.5L13.6,18c-0.2,0.1-0.5,0-0.6-0.2l-3.2-6.4l-3.9,3.4c0.1,0.4,0.2,0.9,0.2,1.4c0,0.3-0.1,0.6-0.3,0.9
	c-0.2,0.3-0.6,0.4-0.9,0.4c-0.3,0-0.6-0.1-1-0.3c0,0-2.9-2.9-2.9-2.9c-0.2-0.3-0.3-0.7-0.3-1c0-0.4,0.2-0.7,0.4-0.9
	C1.4,12,1.7,12,1.9,11.9c0.5,0,0.9,0.1,1.4,0.2L6.7,8.2z"/>
</svg>
