<?xml version="1.0" encoding="utf-8"?>
<!-- Generator: Adobe Illustrator 20.1.0, SVG Export Plug-In . SVG Version: 6.00 Build 0)  -->
<svg version="1.1" id="Слой_1" xmlns="http://www.w3.org/2000/svg" xmlns:xlink="http://www.w3.org/1999/xlink" x="0px" y="0px"
	 viewBox="0 0 15 14" style="enable-background:new 0 0 15 14;" xml:space="preserve">
<path id="Entertainment" d="M7.5,0c3.9,0,7,3.1,7,7s-3.1,7-7,7s-7-3.1-7-7S3.6,0,7.5,0z M7.5,13.2c3.4,0,6.2-2.8,6.2-6.2
	s-2.8-6.2-6.2-6.2C4.1,0.8,1.3,3.6,1.3,7S4.1,13.2,7.5,13.2z M9.8,5.8c0.9,0.6,0.9,1.5,0,2L7.2,9.3C6.9,9.5,6.7,9.6,6.4,9.6
	c-0.6,0-0.9-0.4-0.9-1.2V5.2C5.5,4.4,5.9,4,6.4,4c0.2,0,0.5,0.1,0.8,0.2L9.8,5.8z M9.4,7.1C9.6,7,9.7,6.8,9.7,6.8
	c0-0.1-0.1-0.2-0.3-0.3L6.8,4.9C6.6,4.8,6.5,4.8,6.4,4.8S6.3,5.2,6.3,5.2v3.1c0,0,0,0.4,0.1,0.4c0,0,0.2,0,0.4-0.1L9.4,7.1z"/>
</svg>
