<?xml version="1.0" encoding="utf-8"?>
<!-- Generator: Adobe Illustrator 20.1.0, SVG Export Plug-In . SVG Version: 6.00 Build 0)  -->
<svg version="1.1" id="Слой_1" xmlns="http://www.w3.org/2000/svg" xmlns:xlink="http://www.w3.org/1999/xlink" x="0px" y="0px"
	 viewBox="0 0 19 19" style="enable-background:new 0 0 19 19;" xml:space="preserve">
<path d="M15.9,3.9h-0.5V2.8c0-1.5-1.3-2.8-2.8-2.8H6.5C5,0,3.7,1.3,3.7,2.8v1.1H3.2c-1.5,0-2.8,1.2-2.8,2.7v4.5
	c0,1.5,1.3,2.8,2.8,2.8h0.4v3.5C3.6,18.4,4.2,19,5,19h8.9c0.8,0,1.4-0.6,1.4-1.4V14h0.5c1.6,0,2.8-1.2,2.8-2.8V6.7
	C18.7,5.2,17.4,3.9,15.9,3.9z M4.8,2.8c0-0.9,0.8-1.7,1.8-1.7h6c1,0,1.8,0.8,1.8,1.7v1.1H4.8V2.8L4.8,2.8z M14.3,17.6
	c0,0.2-0.2,0.3-0.3,0.3H5.1c-0.2,0-0.3-0.2-0.3-0.3v-5.9h9.5C14.3,11.7,14.3,17.6,14.3,17.6z M17.6,11.2c0,0.9-0.8,1.7-1.8,1.7h-0.5
	v-1.2h0.8c0.3,0,0.5-0.2,0.5-0.5c0-0.3-0.2-0.5-0.5-0.5H2.9c-0.3,0-0.5,0.2-0.5,0.5c0,0.3,0.2,0.5,0.5,0.5h0.8v1.2H3.2
	c-1,0-1.8-0.8-1.8-1.7V6.7C1.5,5.8,2.3,5,3.2,5h12.6c1,0,1.8,0.8,1.8,1.7V11.2L17.6,11.2z"/>
</svg>
