<?xml version="1.0" encoding="utf-8"?>
<!-- Generator: Adobe Illustrator 20.1.0, SVG Export Plug-In . SVG Version: 6.00 Build 0)  -->
<svg version="1.1" id="Слой_1" xmlns="http://www.w3.org/2000/svg" xmlns:xlink="http://www.w3.org/1999/xlink" x="0px" y="0px"
	 viewBox="0 0 13 11" style="enable-background:new 0 0 13 11;" xml:space="preserve">
<path id="quote" d="M1.1,10.4l1.7-5.2l-2-0.3C0.4,4.6,0,4,0,3c0-1.7,1.2-2.9,2.8-2.9s2.9,1.1,2.9,2.8c0,1.4-0.6,2.6-1.4,3.8
	l-2.7,4.1L1.1,10.4z M8.6,10.4l1.7-5.2L8.2,4.9C7.8,4.6,7.4,4,7.4,3c0-1.7,1.3-2.9,2.9-2.9S13,1.3,13,2.9c0,1.4-0.6,2.6-1.4,3.8
	L9,10.8L8.6,10.4z"/>
</svg>
