<?xml version="1.0" encoding="utf-8"?>
<!-- Generator: Adobe Illustrator 20.1.0, SVG Export Plug-In . SVG Version: 6.00 Build 0)  -->
<svg version="1.1" id="Слой_1" xmlns="http://www.w3.org/2000/svg" xmlns:xlink="http://www.w3.org/1999/xlink" x="0px" y="0px"
	 viewBox="0 0 24 21" style="enable-background:new 0 0 24 21;" xml:space="preserve">
<path d="M5.4,13.4c-0.8-1-1.3-2.2-1.3-3.5c0-3,2.5-5.5,5.5-5.5c1.4,0,2.7,0.5,3.7,1.4c0.7-0.3,1.5-0.4,2.3-0.4
	c3.7,0,6.8,3.1,6.8,6.9c0,0.2,0,0.5,0,0.7c0.9,0.5,1.5,1.4,1.5,2.6c0,1.6-1.3,2.9-2.9,2.9c0,0-0.1,0-0.1,0l0-1.5c0.1,0,0.1,0,0.1,0
	c0.8,0,1.4-0.6,1.4-1.4c0-0.5-0.3-1-0.7-1.2l-0.9-0.5l0.1-1c0-0.2,0-0.3,0-0.5c0-3-2.4-5.4-5.3-5.4c-2.6,0-4.8,1.9-5.2,4.5l-0.2,1.4
	l-1.4-0.1c0,0-0.1,0-0.1,0c-1.2,0-2.1,0.9-2.1,2.1c0,1.2,0.9,2.1,2.1,2.1c0,0,0.1,0,0.1,0l0.1,1.5c0,0-0.1,0-0.1,0
	c-2,0-3.6-1.6-3.6-3.6C5.2,14.3,5.3,13.8,5.4,13.4L5.4,13.4z M6.3,12.1c0.6-0.6,1.5-0.9,2.4-0.9c0.1,0,0.2,0,0.2,0
	c0.3-1.9,1.4-3.6,2.9-4.6c-0.7-0.4-1.4-0.7-2.2-0.7c-2.2,0-4,1.8-4,4C5.7,10.7,5.9,11.4,6.3,12.1L6.3,12.1z M8.9,0.9
	c0-0.4,0.3-0.8,0.8-0.8c0.4,0,0.8,0.3,0.8,0.8v1.4c0,0.4-0.3,0.8-0.8,0.8C9.3,3,8.9,2.6,8.9,2.2V0.9z M2.2,15
	c-0.4,0.2-0.8,0.1-1-0.3s-0.1-0.8,0.3-1L2.7,13c0.4-0.2,0.8-0.1,1,0.3s0.1,0.8-0.3,1L2.2,15z M0.7,9C0.3,9,0,8.6,0.1,8.2
	c0.1-0.4,0.5-0.7,0.9-0.6l1.3,0.2C2.7,7.9,3,8.3,2.9,8.7C2.8,9.1,2.4,9.4,2,9.3L0.7,9z M3.3,3.5C3,3.1,3.1,2.7,3.4,2.4
	c0.3-0.3,0.8-0.2,1.1,0.1l0.9,1c0.3,0.3,0.2,0.8-0.1,1.1C4.9,4.9,4.5,4.8,4.2,4.5L3.3,3.5z M12.3,14.9l1.3,0.7L11,20.9l-1.3-0.7
	L12.3,14.9z M15.3,14.9l1.3,0.7L14,20.9l-1.3-0.7L15.3,14.9z M18.3,14.9l1.3,0.7L17,20.9l-1.3-0.7L18.3,14.9z"/>
</svg>
