<?xml version="1.0" encoding="utf-8"?>
<!-- Generator: Adobe Illustrator 20.1.0, SVG Export Plug-In . SVG Version: 6.00 Build 0)  -->
<svg version="1.1" id="Слой_1" xmlns="http://www.w3.org/2000/svg" xmlns:xlink="http://www.w3.org/1999/xlink" x="0px" y="0px"
	 viewBox="0 0 19 16" style="enable-background:new 0 0 19 16;" xml:space="preserve">
<path d="M3.7,13.2c-2,0-3.6-1.6-3.6-3.6c0-2,1.6-3.6,3.6-3.6C3.8,6,3.9,6,4,6c0.5-3.3,3.3-5.8,6.7-5.8c3.7,0,6.8,3.1,6.8,6.9
	c0,0.2,0,0.5,0,0.7c0.9,0.5,1.5,1.4,1.5,2.6c0,1.6-1.3,2.9-2.9,2.9c0,0-0.1,0-0.1,0l0-1.5H16c0.8,0,1.4-0.6,1.4-1.4
	c0-0.5-0.3-1-0.7-1.2l-0.9-0.5l0.1-1c0-0.2,0-0.3,0-0.5c0-3-2.4-5.4-5.3-5.4C8,1.7,5.8,3.7,5.4,6.3L5.2,7.6L3.9,7.5c0,0-0.1,0-0.1,0
	c-1.2,0-2.1,0.9-2.1,2.1c0,1.2,0.9,2.1,2.1,2.1c0,0,0.1,0,0.1,0l0.1,1.5C3.8,13.2,3.8,13.2,3.7,13.2L3.7,13.2z M7.3,9.7l1.3,0.7
	l-2.7,5.3l-1.3-0.7L7.3,9.7z M10.3,9.7l1.3,0.7l-2.7,5.3l-1.3-0.7L10.3,9.7z M13.3,9.7l1.3,0.7l-2.7,5.3l-1.3-0.7L13.3,9.7z"/>
</svg>
