<?xml version="1.0" encoding="utf-8"?>
<!-- Generator: Adobe Illustrator 20.1.0, SVG Export Plug-In . SVG Version: 6.00 Build 0)  -->
<svg version="1.1" id="Слой_1" xmlns="http://www.w3.org/2000/svg" xmlns:xlink="http://www.w3.org/1999/xlink" x="0px" y="0px"
	 viewBox="0 0 13 14" style="enable-background:new 0 0 13 14;" xml:space="preserve">
<path d="M2.2,1.9L3.1,2C1.5,3.1,0.5,4.9,0.5,6.8c0,2.5,1.7,4.7,4.1,5.5l0.7,0.2v-1.4L5,11c-1.9-0.6-3.1-2.3-3.1-4.2
	c0-1.6,0.9-3.1,2.3-3.8L4,4.3l1.4,0.3l0.7-3.4L2.5,0.5L2.2,1.9z"/>
<path d="M12.5,6.8c0-2.6-1.8-4.9-4.4-5.6L7.4,1.1v1.4l0.3,0.1c2,0.5,3.3,2.3,3.3,4.3c0,1.7-1,3.2-2.5,3.9l0.2-1L7.4,9.5
	l-0.7,3.4l3.6,0.7l0.3-1.4L9.4,12C11.3,10.9,12.5,9,12.5,6.8z"/>
</svg>
