<?xml version="1.0" encoding="utf-8"?>
<!-- Generator: Adobe Illustrator 20.1.0, SVG Export Plug-In . SVG Version: 6.00 Build 0)  -->
<svg version="1.1" id="Слой_1" xmlns="http://www.w3.org/2000/svg" xmlns:xlink="http://www.w3.org/1999/xlink" x="0px" y="0px"
	 viewBox="0 0 18 17" style="enable-background:new 0 0 18 17;" xml:space="preserve">
<path d="M17.2,15l-3.5-3.5c0.9-1.2,1.3-2.7,1.3-4.1c0-4-3.2-7.3-7.2-7.3S0.5,3.2,0.5,7.2s3.2,7.2,7.2,7.2c1.5,0,3-0.4,4.1-1.3
	l3.5,3.5c0.2,0.2,0.5,0.3,0.8,0.3s0.6-0.1,0.9-0.3c0.2-0.2,0.3-0.5,0.3-0.9C17.5,15.5,17.4,15.2,17.2,15z M13,7.2
	c0,2.9-2.3,5.2-5.2,5.2s-5.2-2.3-5.2-5.2S4.9,2,7.8,2C10.6,2,13,4.4,13,7.2z"/>
</svg>
