<?xml version="1.0" encoding="utf-8"?>
<!-- Generator: Adobe Illustrator 20.1.0, SVG Export Plug-In . SVG Version: 6.00 Build 0)  -->
<svg version="1.1" id="Слой_1" xmlns="http://www.w3.org/2000/svg" xmlns:xlink="http://www.w3.org/1999/xlink" x="0px" y="0px"
	 viewBox="0 0 19 20" style="enable-background:new 0 0 19 20;" xml:space="preserve">
<path d="M15.3,12.8c-1.2,0-2.2,0.5-2.9,1.4l-5.4-3c0.1-0.4,0.2-0.8,0.2-1.2c0-0.4-0.1-0.8-0.2-1.2l5.4-3.1c0.7,0.9,1.7,1.4,2.9,1.4
	c2,0,3.6-1.6,3.6-3.6S17.3,0,15.3,0s-3.6,1.6-3.6,3.6c0,0.4,0.1,0.8,0.2,1.2L6.5,7.8C5.8,7,4.8,6.4,3.7,6.4c-2,0-3.6,1.6-3.6,3.6
	s1.6,3.6,3.6,3.6c1.2,0,2.2-0.6,2.9-1.4l5.4,3.1c-0.1,0.4-0.2,0.8-0.2,1.2c0,2,1.6,3.6,3.6,3.6s3.6-1.6,3.6-3.6S17.3,12.8,15.3,12.8
	z M15.3,1.2c1.4,0,2.5,1.1,2.5,2.5s-1.1,2.5-2.5,2.5S12.9,5,12.9,3.7S14,1.2,15.3,1.2z M3.7,12.5c-1.4,0-2.5-1.1-2.5-2.5
	s1.1-2.5,2.5-2.5S6.1,8.6,6.1,10C6.1,11.3,5,12.5,3.7,12.5z M15.3,18.8c-1.4,0-2.5-1.1-2.5-2.5s1.1-2.5,2.5-2.5s2.5,1.1,2.5,2.5
	S16.7,18.8,15.3,18.8z"/>
</svg>
