<?xml version="1.0" encoding="utf-8"?>
<!-- Generator: Adobe Illustrator 20.1.0, SVG Export Plug-In . SVG Version: 6.00 Build 0)  -->
<svg version="1.1" id="Слой_1" xmlns="http://www.w3.org/2000/svg" xmlns:xlink="http://www.w3.org/1999/xlink" x="0px" y="0px"
	 viewBox="0 0 16 16" style="enable-background:new 0 0 16 16;" xml:space="preserve">
<polygon id="snow" points="7.3,7.3 5.3,7.3 5.2,7.1 2.5,4.4 1.5,5.4 3.2,7.3 0.3,7.3 0.3,8.8 3.2,8.8 1.5,10.6 2.5,11.6 5.3,8.8 
	7.3,8.8 7.3,10.6 4.4,13.4 5.4,14.6 7.3,12.9 7.3,15.8 8.8,15.8 8.8,12.9 10.6,14.6 11.6,13.4 8.8,10.6 8.8,8.8 10.6,8.8 10.9,8.9 
	13.4,11.6 14.6,10.6 12.9,8.8 15.8,8.8 15.8,7.3 12.9,7.3 14.6,5.4 13.4,4.4 10.6,7.3 8.8,7.3 8.8,5.3 11.6,2.5 10.6,1.5 8.8,3.2 
	8.8,0.3 7.3,0.3 7.3,3.2 5.4,1.5 4.4,2.5 7.3,5.3 "/>
</svg>
