<?xml version="1.0" encoding="utf-8"?>
<!-- Generator: Adobe Illustrator 20.1.0, SVG Export Plug-In . SVG Version: 6.00 Build 0)  -->
<svg version="1.1" id="Слой_1" xmlns="http://www.w3.org/2000/svg" xmlns:xlink="http://www.w3.org/1999/xlink" x="0px" y="0px"
	 viewBox="0 0 19 18" style="enable-background:new 0 0 19 18;" xml:space="preserve">
<path d="M10.5,1.7L10.5,1.7L10.5,1.7 M9.5,3.6l1.4,2.7l0.5,0.9l1,0.2l3,0.4L13.3,10l-0.8,0.7l0.2,1l0.5,2.9l-2.7-1.4l-0.9-0.5
	l-0.9,0.5l-2.7,1.5l0.5-2.9l0.2-1L5.8,10L3.6,7.9l3-0.4l1-0.2l0.5-0.9L9.5,3.6 M9.5,0C9.2,0,8.9,0.2,8.6,0.7L6.3,5.4L1.2,6.1
	C0,6.3-0.2,7.1,0.7,7.9l3.7,3.6l-0.8,5.1C3.5,17.5,3.8,18,4.3,18c0.2,0,0.4-0.1,0.7-0.2l4.6-2.4l4.6,2.4c0.3,0.1,0.5,0.2,0.7,0.2
	c0.5,0,0.8-0.5,0.7-1.4l-0.8-5.1l3.5-3.6c0.8-0.8,0.5-1.6-0.5-1.8l-5.1-0.7l-2.3-4.6C10.1,0.3,9.8,0,9.5,0L9.5,0z"/>
</svg>
