<?xml version="1.0" encoding="utf-8"?>
<!-- Generator: Adobe Illustrator 20.1.0, SVG Export Plug-In . SVG Version: 6.00 Build 0)  -->
<svg version="1.1" xmlns="http://www.w3.org/2000/svg" xmlns:xlink="http://www.w3.org/1999/xlink" x="0px" y="0px"
	 viewBox="0 0 19 20" style="enable-background:new 0 0 19 20;" xml:space="preserve">
<path d="M1.9,6.3l1,0.6C3,6.9,3.1,6.9,3.2,6.9c0.2,0,0.4-0.1,0.5-0.3C3.9,6.4,3.8,6,3.5,5.9l-1-0.6
	C2.2,5.1,1.9,5.2,1.7,5.5C1.6,5.6,1.6,5.8,1.6,5.9C1.7,6.1,1.8,6.2,1.9,6.3z"/>
<path d="M5.4,4c0.1,0.2,0.3,0.3,0.5,0.3c0.1,0,0.2,0,0.3-0.1C6.4,4,6.5,3.7,6.4,3.4l-0.6-1C5.7,2.3,5.6,2.2,5.4,2.1
	c-0.1,0-0.3,0-0.4,0.1C4.7,2.4,4.6,2.7,4.8,3L5.4,4z"/>
<path d="M3.4,13.1c-0.2,0-0.3,0-0.4,0.1l-1,0.6c-0.1,0.1-0.2,0.2-0.3,0.3c0,0.1,0,0.3,0.1,0.4c0.1,0.2,0.3,0.3,0.5,0.3
	c0.1,0,0.2,0,0.3-0.1l1-0.6c0.1-0.1,0.2-0.2,0.3-0.3c0-0.1,0-0.3-0.1-0.4C3.6,13.2,3.5,13.1,3.4,13.1z"/>
<path d="M17.1,13.7l-1-0.6c-0.1-0.1-0.3-0.1-0.4-0.1c-0.1,0-0.3,0.1-0.3,0.3c-0.1,0.1-0.1,0.3-0.1,0.4
	c0,0.1,0.1,0.3,0.3,0.4l1,0.6c0.1,0.1,0.2,0.1,0.3,0.1c0.2,0,0.4-0.1,0.5-0.3C17.5,14.2,17.4,13.9,17.1,13.7z"/>
<path d="M12.8,4.2c0.1,0.1,0.2,0.1,0.3,0.1c0.2,0,0.4-0.1,0.5-0.3l0.6-1c0.2-0.3,0.1-0.6-0.2-0.8
	c-0.1-0.1-0.3-0.1-0.4-0.1c-0.1,0-0.3,0.1-0.3,0.3l-0.6,1c-0.1,0.1-0.1,0.3-0.1,0.4C12.6,4,12.7,4.1,12.8,4.2z"/>
<path d="M9.5,3.3c0.3,0,0.6-0.3,0.6-0.6V1.6C10.1,1.3,9.8,1,9.5,1S8.9,1.3,8.9,1.6v1.2C8.9,3,9.2,3.3,9.5,3.3z"/>
<path d="M2.8,10c0-0.3-0.3-0.6-0.6-0.6H1.1c-0.3,0-0.6,0.3-0.6,0.6s0.3,0.6,0.6,0.6h1.2C2.5,10.6,2.8,10.3,2.8,10z"/>
<path d="M9.5,4.6c-3,0-5.4,2.4-5.4,5.4c0,3,2.4,5.4,5.4,5.4c3,0,5.4-2.4,5.4-5.4C14.9,7,12.5,4.6,9.5,4.6z M9.5,14.2
	c-2.3,0-4.2-1.9-4.2-4.2s1.9-4.2,4.2-4.2s4.2,1.9,4.2,4.2S11.8,14.2,9.5,14.2z"/>
<path d="M15.8,6.9c0.1,0,0.2,0,0.3-0.1l1-0.6c0.1-0.1,0.2-0.2,0.3-0.3c0-0.1,0-0.3-0.1-0.4c-0.2-0.3-0.5-0.4-0.8-0.2
	l-1,0.6c-0.1,0.1-0.2,0.2-0.3,0.4c0,0.1,0,0.3,0.1,0.4C15.4,6.8,15.6,6.9,15.8,6.9z"/>
<path d="M6.2,15.8c-0.1-0.1-0.3-0.1-0.4-0.1c-0.1,0-0.3,0.1-0.4,0.3l-0.6,1c-0.2,0.3-0.1,0.6,0.2,0.8
	c0.1,0.1,0.2,0.1,0.3,0.1c0.2,0,0.4-0.1,0.5-0.3l0.6-1C6.5,16.3,6.4,16,6.2,15.8z"/>
<path d="M17.9,9.4h-1.2c-0.3,0-0.6,0.3-0.6,0.6s0.3,0.6,0.6,0.6h1.2c0.3,0,0.6-0.3,0.6-0.6S18.2,9.4,17.9,9.4z"/>
<path d="M9.5,16.7c-0.3,0-0.6,0.3-0.6,0.6v1.2c0,0.3,0.3,0.6,0.6,0.6s0.6-0.3,0.6-0.6v-1.2C10.1,17,9.8,16.7,9.5,16.7z
	"/>
<path d="M13.6,16c-0.1-0.1-0.2-0.2-0.4-0.3c-0.1,0-0.3,0-0.4,0.1c-0.1,0.1-0.2,0.2-0.3,0.3c0,0.1,0,0.3,0.1,0.4l0.6,1
	c0.1,0.2,0.3,0.3,0.5,0.3c0.1,0,0.2,0,0.3-0.1c0.3-0.2,0.4-0.5,0.2-0.8L13.6,16z"/>
</svg>