<?xml version="1.0" encoding="utf-8"?>
<!-- Generator: Adobe Illustrator 20.1.0, SVG Export Plug-In . SVG Version: 6.00 Build 0)  -->
<svg version="1.1" id="Слой_1" xmlns="http://www.w3.org/2000/svg" xmlns:xlink="http://www.w3.org/1999/xlink" x="0px" y="0px"
	 viewBox="0 0 18 18" style="enable-background:new 0 0 18 18;" xml:space="preserve">
<ellipse transform="matrix(0.7071 -0.7071 0.7071 0.7071 1.0143 10.9105)" cx="13.7" cy="4.2" rx="1" ry="1"/>
<path d="M17,0h-6.5C9.9,0,9.2,0.3,8.8,0.7L0.3,9.2c-0.4,0.4-0.4,1,0,1.4l7.1,7.1c0.4,0.4,1,0.4,1.4,0l8.5-8.5C17.7,8.8,18,8,18,7.5
	V1C18,0.5,17.5,0,17,0z M16,7.5l-0.1,0.3l-7.8,7.8L2.4,9.9l7.8-7.8L10.5,2H16V7.5z"/>
</svg>
