<?xml version="1.0" encoding="utf-8"?>
<!-- Generator: Adobe Illustrator 20.1.0, SVG Export Plug-In . SVG Version: 6.00 Build 0)  -->
<svg version="1.1" id="Слой_1" xmlns="http://www.w3.org/2000/svg" xmlns:xlink="http://www.w3.org/1999/xlink" x="0px" y="0px"
	 viewBox="0 0 23 20" style="enable-background:new 0 0 23 20;" xml:space="preserve">
<path d="M0.4,9.6l5.3,2l2.1,6.6c0.1,0.4,0.6,0.6,1,0.3l3-2.4c0.3-0.3,0.8-0.3,1.1,0l5.3,3.9
	c0.4,0.3,0.9,0.1,1-0.4L23,0.8c0.1-0.5-0.4-0.9-0.8-0.7L0.4,8.4C-0.1,8.6-0.1,9.4,0.4,9.6z M7.4,10.5l10.4-6.4C18,4,18.2,4.3,18,4.4
	l-8.5,7.9C9.2,12.6,9,13,8.9,13.4l-0.3,2.2c0,0.3-0.4,0.3-0.5,0L7,11.7C6.8,11.2,7,10.8,7.4,10.5z"/>
</svg>
