<?xml version="1.0" encoding="utf-8"?>
<!-- Generator: Adobe Illustrator 20.1.0, SVG Export Plug-In . SVG Version: 6.00 Build 0)  -->
<svg version="1.1" id="Слой_1" xmlns="http://www.w3.org/2000/svg" xmlns:xlink="http://www.w3.org/1999/xlink" x="0px" y="0px"
	 viewBox="0 0 19 18" style="enable-background:new 0 0 19 18;" xml:space="preserve">
<path d="M3.8,11.8l0.1,1.5c0,0-0.1,0-0.1,0c-2,0-3.6-1.6-3.6-3.6c0-2,1.6-3.6,3.6-3.6c0.1,0,0.2,0,0.2,0c0.5-3.3,3.3-5.8,6.7-5.8
	c3.7,0,6.8,3.1,6.8,6.9c0,0.2,0,0.5,0,0.7c0.9,0.5,1.5,1.4,1.5,2.6c0,1.6-1.3,2.9-2.9,2.9c0,0-0.1,0-0.1,0l0-1.5c0.1,0,0.1,0,0.1,0
	c0.8,0,1.4-0.6,1.4-1.4c0-0.5-0.3-1-0.7-1.2l-0.9-0.5l0.1-1c0-0.2,0-0.3,0-0.5c0-3-2.4-5.4-5.3-5.4C8,1.8,5.8,3.7,5.4,6.3L5.2,7.7
	L3.9,7.6c0,0-0.1,0-0.1,0c-1.2,0-2.1,0.9-2.1,2.1C1.6,10.9,2.6,11.8,3.8,11.8C3.8,11.8,3.8,11.8,3.8,11.8L3.8,11.8z M7.5,16.7
	l2.8-3.4l-4.9,0.1l4.8-5.7l1.1,1l-2.7,3.1l4.9-0.1l-5,5.9L7.5,16.7z"/>
</svg>
