<?xml version="1.0" encoding="utf-8"?>
<!-- Generator: Adobe Illustrator 20.1.0, SVG Export Plug-In . SVG Version: 6.00 Build 0)  -->
<svg version="1.1" id="Слой_1" xmlns="http://www.w3.org/2000/svg" xmlns:xlink="http://www.w3.org/1999/xlink" x="0px" y="0px"
	 viewBox="0 0 11 21" style="enable-background:new 0 0 11 21;" xml:space="preserve">
<style type="text/css">
	.st0{opacity:0.4;}
</style>
<path d="M8.7,20.5H2.3c-1.3,0-2.3-1-2.3-2.3V2.8c0-1.3,1-2.3,2.3-2.3h6.4c1.3,0,2.3,1,2.3,2.3v15.4C11,19.5,10,20.5,8.7,20.5z
	 M2.3,1.5C1.6,1.5,1,2.1,1,2.8v15.4c0,0.7,0.6,1.3,1.3,1.3h6.4c0.7,0,1.3-0.6,1.3-1.3V2.8c0-0.7-0.6-1.3-1.3-1.3H2.3z"/>
<path class="st0" d="M5.5,9C6.3,9,7,9.7,7,10.5S6.3,12,5.5,12S4,11.3,4,10.5S4.7,9,5.5,9 M5.5,8C4.1,8,3,9.1,3,10.5S4.1,13,5.5,13
	S8,11.9,8,10.5S6.9,8,5.5,8L5.5,8z"/>
<path class="st0" d="M5.5,14.5C6.3,14.5,7,15.2,7,16c0,0.8-0.7,1.5-1.5,1.5S4,16.8,4,16C4,15.2,4.7,14.5,5.5,14.5 M5.5,13.5
	C4.1,13.5,3,14.6,3,16s1.1,2.5,2.5,2.5S8,17.4,8,16S6.9,13.5,5.5,13.5L5.5,13.5z"/>
<path class="st0" d="M5.5,3.5C6.3,3.5,7,4.2,7,5S6.3,6.5,5.5,6.5S4,5.8,4,5S4.7,3.5,5.5,3.5 M5.5,2.5C4.1,2.5,3,3.6,3,5
	s1.1,2.5,2.5,2.5S8,6.4,8,5S6.9,2.5,5.5,2.5L5.5,2.5z"/>
</svg>