<?xml version="1.0" encoding="utf-8"?>
<!-- Generator: Adobe Illustrator 20.1.0, SVG Export Plug-In . SVG Version: 6.00 Build 0)  -->
<svg version="1.1" id="Layer_1" xmlns:sketch="http://www.bohemiancoding.com/sketch/ns"
	 xmlns="http://www.w3.org/2000/svg" xmlns:xlink="http://www.w3.org/1999/xlink" x="0px" y="0px" viewBox="0 0 17 13"
	 style="enable-background:new 0 0 17 13;" xml:space="preserve">
<path d="M14.4,2.1c0.7-0.4,1.2-1.1,1.5-1.8c-0.6,0.4-1.4,0.7-2.1,0.8
	C13.2,0.5,12.3,0,11.4,0C9.6,0,8.2,1.5,8.2,3.3c0,0.3,0,0.5,0.1,0.8C5.6,3.9,3.2,2.5,1.6,0.6C1.3,1.1,1.1,1.7,1.1,2.2
	c0,1.2,0.6,2.2,1.5,2.8C2.1,5,1.5,4.8,1.1,4.6l0,0c0,1.6,1.2,3,2.7,3.3C3.4,7.9,3.2,7.9,2.9,7.9c-0.2,0-0.4,0-0.6-0.1
	c0.4,1.3,1.7,2.3,3,2.3c-1.1,0.9-2.6,1.4-4,1.4c-0.3,0-0.5,0-0.8,0C2,12.4,3.6,13,5.5,13c6,0,9.3-5,9.3-9.3c0-0.1,0-0.3,0-0.4
	c0.7-0.6,1.2-1.1,1.7-1.7C15.7,1.8,15.1,2,14.4,2.1z"/>
</svg>
