<?xml version="1.0" encoding="utf-8"?>
<!-- Generator: Adobe Illustrator 20.1.0, SVG Export Plug-In . SVG Version: 6.00 Build 0)  -->
<svg version="1.1" id="Слой_1" xmlns="http://www.w3.org/2000/svg" xmlns:xlink="http://www.w3.org/1999/xlink" x="0px" y="0px"
	 viewBox="0 0 44 28" style="enable-background:new 0 0 44 28;" xml:space="preserve">
<path d="M38.1,14.6c0-0.3,0.1-0.6,0.1-0.9c0-4.6-3.7-8.3-8.3-8.3c-0.8,0-1.5,0.1-2.2,0.3C26.2,2.4,22.9,0,19.1,0
	c-4.9,0-8.9,3.8-9.1,8.6c-0.1,0-0.2,0-0.2,0C4.3,8.6,0,13,0,18.3C0,23.6,4.3,28,9.6,28c0.1,0,10.3,0,10.3,0v-8.8h-3.7l5.9-5.9l5.6,6
	l-3.4-0.1V28l12.9,0c0,0,0.2,0,0.2,0c3.6-0.1,6.6-3.1,6.6-6.7C44,17.9,41.4,15,38.1,14.6z"/>
</svg>
