<?xml version="1.0" encoding="utf-8"?>
<!-- Generator: Adobe Illustrator 20.1.0, SVG Export Plug-In . SVG Version: 6.00 Build 0)  -->
<svg version="1.1" id="Слой_1" xmlns="http://www.w3.org/2000/svg" xmlns:xlink="http://www.w3.org/1999/xlink" x="0px" y="0px"
	 viewBox="0 0 19 13" style="enable-background:new 0 0 19 13;" xml:space="preserve">
<path d="M16.2,4.3c0,0-0.1,0-0.1,0c0.2-0.4,0.3-0.8,0.3-1.3c0-1.7-1.3-3-3-3c-1.7,0-3,1.3-3,3s1.3,3,3,3c0.9,0,1.8-0.4,2.3-1.1
	c0,0.1,0.1,0.1,0.1,0.1C17.2,5.8,18,7.1,18,8.5c0,0.2-0.1,0.3-0.2,0.4c-0.6,0.6-2.4,1-4.4,1c0,0-0.1,0-0.2,0c-0.2,0-0.4,0.2-0.4,0.4
	c0,0.2,0.2,0.4,0.4,0.4c0,0,0.1,0,0.1,0c1.8,0,4-0.3,5-1.3c0.3-0.3,0.5-0.6,0.5-1C18.8,6.8,17.8,5.2,16.2,4.3z M13.4,5.2
	c-1.2,0-2.2-1-2.2-2.2s1-2.2,2.2-2.2c1.2,0,2.2,1,2.2,2.2S14.6,5.2,13.4,5.2z"/>
<path d="M5.9,7c1.9,0,3.5-1.6,3.5-3.5C9.4,1.6,7.8,0,5.9,0C4,0,2.4,1.6,2.4,3.5C2.4,5.4,4,7,5.9,7z M5.9,0.8c1.5,0,2.7,1.2,2.7,2.7
	c0,1.5-1.2,2.7-2.7,2.7C4.4,6.2,3.2,5,3.2,3.5C3.2,2,4.4,0.8,5.9,0.8z"/>
<path d="M9.3,5.6C9.1,5.5,8.9,5.6,8.7,5.7C8.6,5.9,8.7,6.2,8.9,6.3c1.3,0.9,2.1,2.4,2.1,3.9c0,1-2.2,1.8-5.1,1.8
	c-2.9,0-5.1-0.8-5.1-1.8c0-1.6,0.8-3,2.1-3.9c0.2-0.1,0.2-0.4,0.1-0.6C2.9,5.6,2.7,5.5,2.5,5.6C0.9,6.7,0,8.4,0,10.2
	c0,0.6,0.3,1.4,2,2c1,0.4,2.4,0.6,3.9,0.6c2.9,0,5.9-0.8,5.9-2.6C11.8,8.4,10.9,6.7,9.3,5.6z"/>
</svg>
