<?xml version="1.0" encoding="utf-8"?>
<!-- Generator: Adobe Illustrator 20.1.0, SVG Export Plug-In . SVG Version: 6.00 Build 0)  -->
<svg version="1.1" id="Слой_1" xmlns="http://www.w3.org/2000/svg" xmlns:xlink="http://www.w3.org/1999/xlink" x="0px" y="0px"
	 viewBox="0 0 17 19" style="enable-background:new 0 0 17 19;" xml:space="preserve">
<path d="M12.1,10.3c1.4-1.2,2.2-2.7,2.2-4.5c0-3.1-2.6-5.8-5.8-5.8S2.7,2.6,2.7,5.8c0,1.8,0.8,3.4,2.2,4.5C2,11.7,0.1,14.6,0.1,18
	c0,0.5,0.4,1,1,1c0.5,0,1-0.4,1-1c0-3.5,2.8-6.3,6.3-6.3s6.3,2.8,6.3,6.3c0,0.5,0.4,1,1,1s1-0.4,1-1C16.9,14.6,15,11.7,12.1,10.3z
	 M12.2,5.8c0,2-1.7,3.7-3.7,3.7S4.8,7.8,4.8,5.8s1.7-3.7,3.7-3.7S12.2,3.7,12.2,5.8z"/>
</svg>
