<?xml version="1.0" encoding="utf-8"?>
<!-- Generator: Adobe Illustrator 20.1.0, SVG Export Plug-In . SVG Version: 6.00 Build 0)  -->
<svg version="1.1" id="Слой_1" xmlns="http://www.w3.org/2000/svg" xmlns:xlink="http://www.w3.org/1999/xlink" x="0px" y="0px"
	 viewBox="0 0 33 20" style="enable-background:new 0 0 33 20;" xml:space="preserve">
<path d="M31.1,1.7c-0.8-0.4-1.8-0.2-2.4,0.3l-4.2,3.6V2.2C24.6,1.1,23,0,21.9,0H2.7C1.6,0,0,1.1,0,2.2v15.6
	C0,18.9,1.6,20,2.7,20h19.1c1.2,0,2.7-1.1,2.7-2.2V15l4.2,3.1c0.5,0.4,1,0.6,1.5,0.6c0.4,0,0.7-0.1,0.9-0.2c0.7-0.3,1.1-1.2,1.1-2.2
	V3.9C32.3,2.5,31.6,1.9,31.1,1.7z M23.1,17.7c-0.1,0.2-0.7,0.8-1.2,0.8H2.7c-0.5,0-1.2-0.5-1.2-0.7l0-15.5C1.6,2,2.2,1.5,2.7,1.5
	h19.1c0.5,0,1.2,0.5,1.2,0.7l0,4.7l0,0v6.9l0,0L23.1,17.7z M30.8,16.2c0,0.5-0.2,0.8-0.3,0.9c0,0-0.4,0.1-0.8-0.2l-5.1-3.7V7.6
	l5.2-4.4C30,3,30.3,3,30.5,3.1c0.1,0,0.3,0.1,0.3,0.7V16.2z"/>
</svg>
