<?xml version="1.0" encoding="utf-8"?>
<!-- Generator: Adobe Illustrator 20.1.0, SVG Export Plug-In . SVG Version: 6.00 Build 0)  -->
<svg version="1.1" id="Слой_1" xmlns="http://www.w3.org/2000/svg" xmlns:xlink="http://www.w3.org/1999/xlink" x="0px" y="0px"
	 viewBox="0 0 24 16" style="enable-background:new 0 0 24 16;" xml:space="preserve">
<path d="M24,3.9c0.1-1-0.4-1.8-1.3-2.3c-0.9-0.4-1.8-0.2-2.5,0.3l-1.6,1.4V2.6c0-1.3-1.5-2.4-2.7-2.4H2.7C1.5,0.2,0,1.3,0,2.6v10.8
	c0,1.3,1.5,2.4,2.7,2.4H16c1.2,0,2.7-1.1,2.7-2.4v-0.3l1.5,1.2c0.4,0.3,1,0.5,1.5,0.5h0.1c0.3,0,0.6-0.1,1.1-0.2
	c0.9-0.5,1.3-1.4,1.2-2.3V3.9z M17,13.5c0,0.2-0.5,0.8-1.1,0.8H2.7c-0.5,0-1.1-0.5-1.1-0.8V2.6c0-0.2,0.5-0.8,1.1-0.8H16
	c0.5,0,1.1,0.5,1.1,0.8v2c0,0.5,0,1.1,0,1.6v4.2C17,11.4,17,12.4,17,13.5z M22.2,13.2c-0.1,0-0.2,0.1-0.3,0.1l0,0
	c-0.2,0-0.4-0.1-0.5-0.2l-2.6-1.9V5.4l2.6-2.3c0.2-0.2,0.5-0.2,0.8-0.1c0.2,0.1,0.4,0.4,0.3,0.8v8.7C22.5,12.8,22.3,13.1,22.2,13.2z
	"/>
</svg>
