<?xml version="1.0" encoding="utf-8"?>
<!-- Generator: Adobe Illustrator 20.1.0, SVG Export Plug-In . SVG Version: 6.00 Build 0)  -->
<svg version="1.1" id="Слой_1" xmlns="http://www.w3.org/2000/svg" xmlns:xlink="http://www.w3.org/1999/xlink" x="0px" y="0px"
	 viewBox="0 0 20 11" style="enable-background:new 0 0 20 11;" xml:space="preserve">
<path d="M19.5,9.9c0-0.1,0-0.1-0.1-0.1c-0.3-0.6-1-1.3-1.9-2.2l0,0l0,0l0,0h0c-0.4-0.4-0.7-0.7-0.8-0.8
	c-0.2-0.3-0.3-0.5-0.1-0.8c0.1-0.2,0.4-0.6,0.9-1.3c0.3-0.4,0.5-0.6,0.7-0.9c1.2-1.5,1.7-2.5,1.5-3l-0.1-0.1c0-0.1-0.1-0.1-0.3-0.2
	c-0.2-0.1-0.4-0.1-0.6,0l-2.9,0c0,0-0.1,0-0.2,0c-0.1,0-0.1,0-0.1,0l-0.1,0l0,0c0,0-0.1,0.1-0.1,0.1c0,0.1-0.1,0.1-0.1,0.2
	c-0.3,0.8-0.7,1.6-1.1,2.3c-0.2,0.4-0.5,0.8-0.7,1.1c-0.2,0.3-0.4,0.5-0.5,0.7c-0.1,0.1-0.3,0.3-0.4,0.3c-0.1,0.1-0.2,0.1-0.3,0.1
	c-0.1,0-0.1,0-0.2,0c-0.1-0.1-0.2-0.1-0.2-0.2c-0.1-0.1-0.1-0.2-0.1-0.4c0-0.2,0-0.3,0-0.4c0-0.1,0-0.3,0-0.5c0-0.2,0-0.3,0-0.4
	c0-0.3,0-0.5,0-0.8c0-0.3,0-0.5,0-0.7c0-0.2,0-0.4,0-0.6c0-0.2,0-0.3,0-0.5c0-0.1-0.1-0.2-0.1-0.3c0-0.1-0.1-0.2-0.2-0.2
	c-0.1-0.1-0.2-0.1-0.3-0.1C10.6,0.1,10.2,0,9.6,0c-1.2,0-2,0.1-2.4,0.2C7.1,0.3,7,0.4,6.9,0.5C6.7,0.7,6.7,0.8,6.8,0.8
	C7.2,0.8,7.5,1,7.7,1.2l0.1,0.1c0,0.1,0.1,0.2,0.1,0.5c0,0.2,0.1,0.5,0.1,0.7c0,0.5,0,0.9,0,1.3c0,0.3-0.1,0.6-0.1,0.8
	c0,0.2-0.1,0.4-0.1,0.5C7.7,5.2,7.6,5.3,7.6,5.3c0,0,0,0-0.1,0.1c-0.1,0-0.2,0.1-0.3,0.1c-0.1,0-0.2,0-0.3-0.1
	C6.8,5.2,6.7,5,6.5,4.9C6.4,4.7,6.2,4.5,6,4.2c-0.2-0.3-0.4-0.6-0.6-1L5.3,2.8C5.2,2.7,5.1,2.4,4.9,2C4.7,1.7,4.6,1.3,4.4,1
	C4.4,0.8,4.3,0.7,4.2,0.7l-0.1,0c0,0-0.1-0.1-0.2-0.1c-0.1,0-0.2-0.1-0.2-0.1L1,0.5c-0.3,0-0.5,0.1-0.6,0.2l0,0.1c0,0,0,0.1,0,0.2
	c0,0.1,0,0.2,0.1,0.3C0.8,2.1,1.3,3,1.7,3.9C2.2,4.8,2.6,5.5,3,6c0.3,0.5,0.7,1,1.1,1.5C4.4,8,4.6,8.3,4.7,8.5C4.9,8.6,5,8.7,5,8.8
	L5.3,9C5.4,9.2,5.7,9.4,6,9.6c0.3,0.2,0.7,0.4,1,0.7c0.4,0.2,0.8,0.4,1.3,0.5c0.5,0.1,1,0.2,1.5,0.2H11c0.2,0,0.4-0.1,0.5-0.2l0-0.1
	c0,0,0.1-0.1,0.1-0.2c0-0.1,0-0.2,0-0.3c0-0.3,0-0.5,0.1-0.8c0.1-0.2,0.1-0.4,0.2-0.5c0.1-0.1,0.1-0.2,0.2-0.3
	c0.1-0.1,0.1-0.1,0.2-0.1c0,0,0.1,0,0.1,0c0.2-0.1,0.3,0,0.6,0.2c0.2,0.2,0.4,0.4,0.6,0.6c0.2,0.2,0.4,0.5,0.7,0.8
	c0.3,0.3,0.5,0.5,0.7,0.6l0.2,0.1c0.1,0.1,0.3,0.2,0.5,0.2C15.8,11,16,11,16.2,11l2.6,0c0.3,0,0.5,0,0.6-0.1
	c0.1-0.1,0.2-0.2,0.3-0.3c0-0.1,0-0.2,0-0.3C19.6,10.1,19.6,10,19.5,9.9L19.5,9.9z"/>
</svg>
