<?xml version="1.0" standalone="no"?>
<!DOCTYPE svg PUBLIC "-//W3C//DTD SVG 20010904//EN"
 "http://www.w3.org/TR/2001/REC-SVG-20010904/DTD/svg10.dtd">
<svg version="1.0" xmlns="http://www.w3.org/2000/svg"
 width="700.000000pt" height="700.000000pt" viewBox="0 0 700.000000 700.000000"
 preserveAspectRatio="xMidYMid meet">
<metadata>
Created by potrace 1.11, written by Peter Selinger 2001-2013
</metadata>
<g transform="translate(0.000000,700.000000) scale(0.100000,-0.100000)"
fill="#000000" stroke="none">
<path d="M1625 6990 c-422 -35 -806 -212 -1105 -510 -266 -267 -431 -591 -497
-980 -17 -98 -18 -225 -18 -2005 0 -2040 -2 -1952 51 -2167 50 -200 148 -413
272 -588 79 -112 255 -292 367 -376 282 -212 591 -327 948 -355 86 -6 773 -9
1962 -7 1663 4 1839 5 1925 21 390 69 704 230 971 496 229 230 366 467 466
811 l28 95 3 1900 c2 1225 -1 1947 -7 2032 -34 436 -205 815 -505 1117 -302
304 -683 480 -1113 516 -137 11 -3608 11 -3748 0z m3865 -3490 l0 -1970 -600
0 -600 0 -2 1116 -3 1117 -885 -1116 -885 -1116 -699 0 c-665 -1 -698 0 -684
17 8 9 722 896 1587 1970 l1572 1952 600 0 599 0 0 -1970z"/>
</g>
</svg>
